<svg xmlns="http://www.w3.org/2000/svg" viewBox="0 0 240 234"><defs><style>.cls-1{fill:#00005b;}.cls-2{fill:#99f;}</style></defs><title>Asset 148</title><g id="Layer_2" data-name="Layer 2"><g id="Surfaces"><g id="Video_Audio_Surface" data-name="Video/Audio Surface"><g id="Outline_no_shadow" data-name="Outline no shadow"><rect class="cls-1" width="240" height="234" rx="42.5"/></g></g></g><g id="Outlined_Mnemonics_Logos" data-name="Outlined Mnemonics &amp; Logos"><g id="An"><path class="cls-2" d="M97.04315,140H59.85223l-7.6377,23.46769a1.89429,1.89429,0,0,1-1.93212,1.449H31.44549q-1.61133,0-1.127-1.771L62.65236,70.87622c.32227-.96582.644-1.82674.96631-3.06209a34.47808,34.47808,0,0,0,.644-6.52027.99642.99642,0,0,1,1.127-1.12719H90.9883q1.125,0,1.28808.80517l36.41325,102.33472q.48267,1.61133-.96631,1.61011H106.79315a1.48825,1.48825,0,0,1-1.60987-1.127ZM65.71144,120.14233h25.438q-.96606-3.21863-2.25391-7.24511-1.29053-4.02246-2.73681-8.61353-1.44946-4.58826-2.89844-9.177-1.44873-4.58826-2.65625-8.855-1.20777-4.26379-2.17334-7.80835h-.16113a130.10721,130.10721,0,0,1-3.38086,12.87988q-2.2566,7.24512-4.58887,14.812Q67.96413,113.70484,65.71144,120.14233Z"/><path class="cls-2" d="M139.95981,163.38436V104.04224q0-2.7356-.08007-6.11792-.0835-3.38086-.2417-6.43994c-.1084-2.03785-.21631-3.93059-.32178-5.113a.9562.9562,0,0,1,.16064-.96607,1.31358,1.31358,0,0,1,.96631-.322h16.07145a3.59919,3.59919,0,0,1,1.61036.322,1.51637,1.51637,0,0,1,.80468,1.127q.32081.96606.72461,2.17358a16.52607,16.52607,0,0,1,.56348,3.2614,32.34487,32.34487,0,0,1,10.626-6.19849A36.57379,36.57379,0,0,1,182.919,83.75635a30.62737,30.62737,0,0,1,9.41846,1.52954,23.79268,23.79268,0,0,1,15.21435,14.812c1.60987,4.13306,2.24138,9.47363,2.24138,16.01929v47.26717q0,1.44909-1.28809,1.449L189.6924,165a1.42233,1.42233,0,0,1-1.60986-1.61011V118.544a22.1973,22.1973,0,0,0-1.94385-8.70557,11.50377,11.50377,0,0,0-4.10547-4.991,12.1157,12.1157,0,0,0-6.84229-1.771,20.031,20.031,0,0,0-7.56689,1.3684,19.08763,19.08763,0,0,0-5.957,3.78345v55.15609q0,1.44909-1.28809,1.449H141.409A1.28093,1.28093,0,0,1,139.95981,163.38436Z"/></g></g></g></svg>