<svg id="Layer_1" data-name="Layer 1" xmlns="http://www.w3.org/2000/svg" viewBox="0 0 240 234"><defs><style>.cls-1{fill:#00005b;}.cls-2{fill:#99f;}</style></defs><title>Artboard 1</title><rect class="cls-1" width="240" height="234" rx="42.5"/><path class="cls-2" d="M94.32324,140H57.13184l-7.5669,23.551A1.89358,1.89358,0,0,1,47.63281,165H28.7959q-1.61133,0-1.127-1.771L59.86914,70.87622q.48267-1.44873.96582-3.30054a29.74633,29.74633,0,0,0,.78573-6.37858.99662.99662,0,0,1,1.12695-1.12719H88.34676q1.12426,0,1.28809.80517L126.04,163.38989q.48267,1.61133-.96582,1.61011H104.144a1.48792,1.48792,0,0,1-1.60986-1.12695Zm-31.395-19.85767h25.438q-.96606-3.21863-2.25439-7.24511-1.29054-4.02246-2.73682-8.61353-1.44873-4.58826-2.89795-9.177-1.44873-4.58826-2.65674-8.855-1.207-4.26379-2.17334-7.80835h-.16113A129.83529,129.83529,0,0,1,72.105,91.32324q-2.25659,7.24512-4.58838,14.812Q65.18091,113.70484,62.92822,120.14233Z"/><path class="cls-2" d="M202.83691,86.21053v61.30168q0,4.02648.08057,7.16455.07909,3.13953.32178,5.47412c.16113,1.55713.29443,2.4895.40283,3.561.10547.86036-.269,1.28809-1.12695,1.28809h-17.227a1.8896,1.8896,0,0,1-1.93213-1.12695,24.25482,24.25482,0,0,1-.56348-2.49561,10.58926,10.58926,0,0,1-.2417-2.11206,28.73423,28.73423,0,0,1-11.27,6.19849,43.559,43.559,0,0,1-11.10888,1.52954,33.20536,33.20536,0,0,1-10.86719-1.69068,21.20047,21.20047,0,0,1-8.53321-5.47387,25.79177,25.79177,0,0,1-5.63476-9.66016,44.18714,44.18714,0,0,1-2.0127-14.24829v-49.549a1.1382,1.1382,0,0,1,1.28809-1.28809h19.13314a1.13916,1.13916,0,0,1,1.28808,1.28809v46.97282q0,6.60351,2.898,10.38452c1.93213,2.52319,5.82194,3.78345,10.32976,3.78345a18.26761,18.26761,0,0,0,6.76171-1.20752,25.49323,25.49323,0,0,0,6.34392-3.3003V86.21053c0-.74976.48291-1.1272,1.44922-1.1272H201.71A.9976.9976,0,0,1,202.83691,86.21053Z"/></svg>