<svg id="Layer_1" data-name="Layer 1" xmlns="http://www.w3.org/2000/svg" viewBox="0 0 240 234"><defs><style>.cls-1{fill:#000b1d;}.cls-2{fill:#fff;}</style></defs><title>Artboard 1</title><rect class="cls-1" width="240" height="234" rx="42.5"/><path class="cls-2" d="M55.0625,164.1665,55,62.03052q0-1.44873.96631-1.60987,2.73559-.15857,8.37158-.24145c3.75586-.053,7.4303-.10571,11.83264-.16113q6.59985-.07911,12.07471-.08057c8.7998,0,16.00476.63477,21.21228,2.56689q7.80688,2.89783,11.99463,7.32544a24.1801,24.1801,0,0,1,5.91113,9.25757,31.04394,31.04394,0,0,1,1.44922,8.855,25.61447,25.61447,0,0,1-1.88672,9.41846,25.135,25.135,0,0,1-3.86377,6.84253,18.37823,18.37823,0,0,1-4.34717,4.0249,32.122,32.122,0,0,1,6.35938,4.42749,26.24885,26.24885,0,0,1,6.0376,7.96948,25.958,25.958,0,0,1,2.77453,12.19861,28.992,28.992,0,0,1-5.59192,17.26453q-5.39574,7.407-15.45605,11.51147A63.4326,63.4326,0,0,1,88.769,165.9375H78.0625c-3.38086,0-6.231-.02759-9.07324-.08057q-4.26783-.08313-7.40625-.16089-3.13917-.08313-5.39356-.08056Q55.06153,165.45692,55.0625,164.1665ZM76.83264,78.87024l.10486,22.27405H87.481q4.34693,0,8.5332.16089a29.9335,29.9335,0,0,1,5.95654.644,14.59966,14.59966,0,0,0,3.46192-4.34693,12.49237,12.49237,0,0,0,1.63659-6.1715,12.28643,12.28643,0,0,0-2.3612-7.35242,12.52579,12.52579,0,0,0-6.0376-4.10547,32.23991,32.23991,0,0,0-10.16736-1.26379H83.83411c-1.396,0-2.252.02783-3.37891.08056Q78.76477,78.8728,76.83264,78.87024Zm.10486,41.06726v26.76978c1.82422.10815,3.24316.18872,5.06934.24145q2.7356.08313,6.60107.08057a42.59823,42.59823,0,0,0,11.67236-1.449,15.09155,15.09155,0,0,0,7.64746-4.508,11.7948,11.7948,0,0,0,3.13477-7.5669,13.99712,13.99712,0,0,0-2.65137-7.56714c-1.39648-2.14575-3.97217-3.90771-7.728-4.87378a39.35908,39.35908,0,0,0-4.42774-.80493,46.77008,46.77008,0,0,0-5.87646-.322Z"/><path class="cls-2" d="M148.17627,85.01489H165.7251a2.18992,2.18992,0,0,1,2.09277,1.61011,7.78189,7.78189,0,0,1,.80518,2.25391,26.02512,26.02512,0,0,1,.48291,3.13964c.10595,1.127.16113,2.6858.16113,3.97364a38.56036,38.56036,0,0,1,10.70654-8.9646c4.34717-2.415,8.93262-2.96509,14.51514-2.96509a1.28058,1.28058,0,0,1,1.44873,1.449v19.17481q0,1.1283-1.60986,1.127a36.87973,36.87973,0,0,0-10.168.72461,39.61157,39.61157,0,0,0-8.37207,2.6565,20.00151,20.00151,0,0,0-5.9126,3.70288V163.551q0,1.44909-1.28809,1.449H149.625a1.42233,1.42233,0,0,1-1.60986-1.61011V108.3894q0-3.53979-.08057-7.48657-.08277-3.94335-.2417-7.80859a57.31046,57.31046,0,0,0-.64355-6.95215.925.925,0,0,1,1.12695-1.1272Z"/></svg>