<svg id="Layer_1" data-name="Layer 1" xmlns="http://www.w3.org/2000/svg" viewBox="0 0 240 234"><defs><style>.cls-1{fill:#000b1d;}.cls-2{fill:#fff;}</style></defs><title>Artboard 1</title><rect class="cls-1" width="240" height="234" rx="42.5"/><path class="cls-2" d="M117.91667,145.2583v16.583a2.124,2.124,0,0,1-1.2876,2.2539,43.27214,43.27214,0,0,1-9.74072,2.17359,100.9585,100.9585,0,0,1-12.484.72461,71.17638,71.17638,0,0,1-17.79053-2.17359,52.60115,52.60115,0,0,1-15.37549-6.60107,46.89238,46.89238,0,0,1-11.91357-10.86743,48.17125,48.17125,0,0,1-7.728-14.9729,64.17523,64.17523,0,0,1-2.59615-19.46122c0-10.83985,2.21871-20.22531,6.94283-28.43649a48.83838,48.83838,0,0,1,20.125-19.15893C74.7627,60.761,85.413,58.18542,97.43542,58.18542a101.8055,101.8055,0,0,1,12.47754.64405,34.37065,34.37065,0,0,1,8.19853,2.072,2.07223,2.07223,0,0,1,.80518,1.93188l-.04021,17.86394c0,.96606-.37744,1.28808-1.12695.96606a34.81216,34.81216,0,0,0-9.499-2.81763,73.87461,73.87461,0,0,0-11.75293-.88549q-10.78857,0-18.51514,4.34716A30.14377,30.14377,0,0,0,66.06836,94.30176a37.1591,37.1591,0,0,0-4.186,18.11255,39.19347,39.19347,0,0,0,2.0127,13.2019,31.3052,31.3052,0,0,0,5.55469,9.82105,27.51331,27.51331,0,0,0,8.0498,6.60107,40.30538,40.30538,0,0,0,9.59912,3.83748A42.67307,42.67307,0,0,0,97,147.08333a105.3465,105.3465,0,0,0,10.713-.48315,39.44091,39.44091,0,0,0,8.916-2.14681q.64088-.483.96582-.24146A1.28139,1.28139,0,0,1,117.91667,145.2583Z"/><path class="cls-2" d="M163.63184,84.08333q11.91284,0,19.23974,4.34693c4.88281,2.89795,8.18705,6.17208,10.54887,11.10762a37.97278,37.97278,0,0,1,3.542,16.583v31.073q0,3.06042.08057,5.79614.07909,2.73963.2417,5.635c0,.43018-.1084.69922-.32227.80493-4.82959,1.82642-8.8057,3.59371-12.56156,4.66524a70.99579,70.99579,0,0,1-10.94776,2.25416,94.158,94.158,0,0,1-11.27.644,44.06909,44.06909,0,0,1-16.3418-2.8982,28.14674,28.14674,0,0,1-12.25016-8.855q-4.50879-5.95422-4.50782-15.134,0-8.69385,4.74952-14.49c3.16455-3.864,7.903-6.762,13.37711-8.69385a56.45756,56.45756,0,0,1,18.83692-2.89795h5.87646a26.68431,26.68431,0,0,1,3.62256.16089v-.96606a10.66053,10.66053,0,0,0-.56348-2.81738,8.39939,8.39939,0,0,0-2.17334-3.46167,12.6416,12.6416,0,0,0-4.58887-3.1438A24.72813,24.72813,0,0,0,160.251,102.75a56.01234,56.01234,0,0,0-11.5918,1.12695c-3.542.7522-7.12321,2.75163-10.12712,4.03972a1.47808,1.47808,0,0,1-.96582,0,.74157.74157,0,0,1-.48291-.80493V90.35742a1.76458,1.76458,0,0,1,1.127-1.771c3.542-1.61011,7.84489-2.49065,12.3-3.29558A73.6551,73.6551,0,0,1,163.63184,84.08333Zm11.53483,63.62V131.56071c-1.28809-.21387-2.14372-.37476-3.3239-.48291q-1.7732-.15856-4.34668-.16113c-5.79589,0-9.66048.86035-12.075,2.57592-2.415,1.71827-3.62256,3.60995-3.62256,6.61361a6.94316,6.94316,0,0,0,1.36817,4.21631,10.56835,10.56835,0,0,0,4.5083,3.91431c2.09277.91308,4.50814.91552,7.72786.91552A35.39079,35.39079,0,0,0,170.877,148.75,27.70261,27.70261,0,0,0,175.16667,147.70337Z"/></svg>