<svg id="Layer_1" data-name="Layer 1" xmlns="http://www.w3.org/2000/svg" viewBox="0 0 612 596.7"><defs><style>.cls-1{fill:#002615;}.cls-2{fill:#00f58a;}</style></defs><title>cp_2017_appicon_RGB</title><path class="cls-1" d="M20.1,18H594V578.6H20.1V18Z"/><path class="cls-2" d="M28.1,25.5H584V568.6H28.1V25.5ZM0,596.7H612V0H0Z"/><path class="cls-2" d="M290.4,412.5V378.1c0-3.1-1.3-3.1-2.8-2-12.2,4.1-23.5,5.4-40.3,5.4-37,0-82.1-23.5-82.1-103,0-64.3,32.9-101.7,82.1-101.7,17.6,0,32.6,3.1,42.8,7.9,1.3.5,3.1.5,3.1-3.1V145.3c0-2.5-.5-3.8-2.6-4.6-7.9-3.8-23.2-5.9-43.6-5.9-78.3,0-129.5,58.1-129.5,144.6,0,101,58.1,143.8,123.7,143.8,18.1,0,35.7-1.8,46.7-6.4,1.8-.4,2.5-1.7,2.5-4.3Zm81.9-160.1a74.09,74.09,0,0,1,22.2-3.3c31.9,0,50.5,22.4,50.5,64.3,0,51.3-29.8,71.7-58.4,71.7-4.6,0-10.2-.5-14-1.8l-.3-130.9Zm27.3-43.3c-29.8,0-55.3,8.9-72.2,14.3-.8.5-3.6,3.1-3.6,3.6.8,5.9,2.5,15.8,2.5,20.4V484.5c0,2,1.8,2.6,4.1,2.6l40-3.8c2-.5,1.8-2.3,1.8-3.8V423.7c3.8.5,8.7,0,12,0,54.1,0,107.1-37.5,107.1-113.5.3-57.8-32-101.1-91.7-101.1Z"/></svg>