<?xml version="1.0" encoding="utf-8"?>
<!-- Generator: Adobe Illustrator 21.0.0, SVG Export Plug-In . SVG Version: 6.00 Build 0)  -->
<svg version="1.1" id="Layer_1" xmlns="http://www.w3.org/2000/svg" xmlns:xlink="http://www.w3.org/1999/xlink" x="0px" y="0px"
	 viewBox="0 0 611.5 596.5" style="enable-background:new 0 0 611.5 596.5;" xml:space="preserve">
<style type="text/css">
	.st0{fill:#002616;}
	.st1{fill:#CCFFEA;}
</style>
<path class="st0" d="M20.1,18H594v560.6H20.1V18L20.1,18z"/>
<path class="st1" d="M28.1,25.5H584v543.1H28.1V25.5L28.1,25.5z M0,596.7h612V0H0V596.7z"/>
<path class="st1" d="M290.4,412.5v-34.4c0-3.1-1.3-3.1-2.8-2c-12.2,4.1-23.5,5.4-40.3,5.4c-37,0-82.1-23.5-82.1-103
	c0-64.3,32.9-101.7,82.1-101.7c17.6,0,32.6,3.1,42.8,7.9c1.3,0.5,3.1,0.5,3.1-3.1v-36.3c0-2.5-0.5-3.8-2.6-4.6
	c-7.9-3.8-23.2-5.9-43.6-5.9c-78.3,0-129.5,58.1-129.5,144.6c0,101,58.1,143.8,123.7,143.8c18.1,0,35.7-1.8,46.7-6.4
	C289.7,416.4,290.4,415.1,290.4,412.5L290.4,412.5z M372.3,252.4c6.9-2,13.3-3.3,22.2-3.3c31.9,0,50.5,22.4,50.5,64.3
	c0,51.3-29.8,71.7-58.4,71.7c-4.6,0-10.2-0.5-14-1.8L372.3,252.4L372.3,252.4z M399.6,209.1c-29.8,0-55.3,8.9-72.2,14.3
	c-0.8,0.5-3.6,3.1-3.6,3.6c0.8,5.9,2.5,15.8,2.5,20.4v237.1c0,2,1.8,2.6,4.1,2.6l40-3.8c2-0.5,1.8-2.3,1.8-3.8v-55.8
	c3.8,0.5,8.7,0,12,0c54.1,0,107.1-37.5,107.1-113.5C491.6,252.4,459.3,209.1,399.6,209.1L399.6,209.1z"/>
</svg>
