<?xml version="1.0" encoding="utf-8"?>
<!-- Generator: Adobe Illustrator 24.2.0, SVG Export Plug-In . SVG Version: 6.00 Build 0)  -->
<svg version="1.1" id="cf_x5F_builder_x5F_2016_x5F_appicon.svg"
	 xmlns="http://www.w3.org/2000/svg" xmlns:xlink="http://www.w3.org/1999/xlink" x="0px" y="0px" width="256px" height="249.6px"
	 viewBox="0 0 256 249.6" style="enable-background:new 0 0 256 249.6;" xml:space="preserve">
<style type="text/css">
	.st0{fill-rule:evenodd;clip-rule:evenodd;fill:#000F34;}
	.st1{fill-rule:evenodd;clip-rule:evenodd;fill:#CADBFE;}
</style>
<g>
	<g>
		<rect x="10.7" y="10.7" class="st0" width="234.7" height="228.3"/>
	</g>
	<g>
		<path class="st1" d="M0,0v249.6h256V0H0z M10.7,10.7h234.7v228.3H10.7V10.7z"/>
	</g>
	<path class="st1" d="M135.4,171.1c0,1.1-0.4,1.6-1.2,1.9c-4.6,1.9-11.9,2.6-19.4,2.6c-27.4,0-51.7-17.9-51.7-60.1
		c0-36.2,21.4-60.5,54.1-60.5c8.6,0,14.9,0.9,18.2,2.5c0.9,0.4,1.1,0.9,1.1,1.9v15.1c0,1.4-0.7,1.4-1.2,1.2
		c-4.2-2.1-10.5-3.3-17.9-3.3c-20.6,0-34.3,15.6-34.3,42.5c0,33.2,18.8,43.1,34.3,43.1c7,0,11.7-0.5,16.8-2.3
		c0.7-0.4,1.2-0.4,1.2,0.9L135.4,171.1L135.4,171.1z M142.2,107.3c-0.7,0-0.7-0.4-0.7-1.2V91.6c0-0.9,0.2-1.1,0.9-1.1h9.8v-5.4
		c0-6.5,1.1-12.1,3.5-16.8c4.4-9,12.1-13,22.7-13c3.2,0,5.3,0.2,7.1,0.9c0.9,0.4,1.1,0.7,1.1,1.6v14.1c0,0.9-0.4,1.2-1.2,1.1
		c-1.4-0.4-3.4-0.5-4.8-0.5c-6.2,0-9.1,4.4-9.1,12.8v5.4h14c0.9,0,1.2,0.2,1.2,0.9v14.7c0,0.9-0.2,1.1-1.1,1.2h-14.1V173
		c0,0.7-0.2,1.2-1.2,1.2h-16.7c-0.9,0-1.2-0.5-1.2-1.2v-65.6H142.2z"/>
</g>
</svg>
