<svg id="Layer_1" data-name="Layer 1" xmlns="http://www.w3.org/2000/svg" viewBox="0 0 240 234"><defs><style>.cls-1{fill:#00005b;}.cls-2{fill:#99f;}</style></defs><title>Artboard 1</title><rect class="cls-1" width="240" height="234" rx="42.5"/><path class="cls-2" d="M114.83333,145.2583v16.583a2.124,2.124,0,0,1-1.28759,2.2539,40.74266,40.74266,0,0,1-9.48275,2.17359,103.546,103.546,0,0,1-12.63867.72461,71.17638,71.17638,0,0,1-17.79053-2.17359,52.60115,52.60115,0,0,1-15.37549-6.60107,46.89238,46.89238,0,0,1-11.91357-10.86743,48.17125,48.17125,0,0,1-7.728-14.9729,63.083,63.083,0,0,1-2.73731-19.32007q0-16.25976,7.084-28.57764a48.83838,48.83838,0,0,1,20.125-19.15893,66.09514,66.09514,0,0,1,31.07324-7.23845,101.80561,101.80561,0,0,1,12.47754.64405,37.34879,37.34879,0,0,1,8.45215,1.93213,2.07222,2.07222,0,0,1,.80517,1.93188V80.69727c0,.96606-.37744,1.28808-1.12695.96606a35.60969,35.60969,0,0,0-9.61291-2.93152,73.87457,73.87457,0,0,0-11.75293-.8855,36.76712,36.76712,0,0,0-18.40125,4.46106A30.14377,30.14377,0,0,0,63.08838,94.30176a37.1591,37.1591,0,0,0-4.186,18.11255,39.19347,39.19347,0,0,0,2.0127,13.2019,31.3052,31.3052,0,0,0,5.55469,9.82105,27.51331,27.51331,0,0,0,8.0498,6.60107,39.61266,39.61266,0,0,0,9.57959,3.62256A43.452,43.452,0,0,0,94,147.16667a108.58423,108.58423,0,0,0,10.86768-.48316,37.49154,37.49154,0,0,0,8.67806-2.23014q.64086-.483.96582-.24146A1.28143,1.28143,0,0,1,114.83333,145.2583Z"/><path class="cls-2" d="M151.7998,107.26221v56.4497c0,.86036-.37744,1.28809-1.12695,1.28809H130.58333a1.28093,1.28093,0,0,1-1.44922-1.449V52.36133c0-.74976.42774-1.127,1.28809-1.127h20.25065a.99742.99742,0,0,1,1.12695,1.127l.11687,37.99609a46.019,46.019,0,0,1,9.30159-4.74951c3.38086-1.23267,7.3252-1.52458,11.8335-1.52458a32.15363,32.15363,0,0,1,9.41845,1.449,22.33874,22.33874,0,0,1,8.77442,4.74455c2.68164,2.415,4.5638,5.69018,6.17366,9.821q2.41481,6.19959,2.415,16.01929V163.551q0,1.44909-1.28808,1.449H179.6932a1.42233,1.42233,0,0,1-1.60987-1.61011V118.37134a20.19262,20.19262,0,0,0-1.52978-8.45264,11.9783,11.9783,0,0,0-4.186-5.07129,13.74062,13.74062,0,0,0-7.36605-1.771,23.842,23.842,0,0,0-7.084,1.04638A19.51536,19.51536,0,0,0,151.7998,107.26221Z"/></svg>