<?xml version="1.0" encoding="utf-8"?>
<!-- Generator: Adobe Illustrator 26.3.1, SVG Export Plug-In . SVG Version: 6.00 Build 0)  -->
<svg version="1.1" id="Layer_1" xmlns="http://www.w3.org/2000/svg" xmlns:xlink="http://www.w3.org/1999/xlink" x="0px" y="0px"
	 viewBox="0 0 269 256.8" style="enable-background:new 0 0 269 256.8;" xml:space="preserve">
<style type="text/css">
	.st0{fill:#FFFFFF;}
</style>
<g id="Icon-Adobe-Color-86x84-redo" transform="translate(35 26)">
	<path id="Rectangle_221082" d="M-1.7-26h202.4C219.1-26,234-11.1,234,7.3v190.1c0,18.4-14.9,33.3-33.3,33.3H-1.7
		c-18.4,0-33.3-14.9-33.3-33.3V7.3C-35-11.1-20.1-26-1.7-26z"/>
	<g id="Group_302982" transform="translate(1 -0.001)">
		<path id="Ellipse_20180" class="st0" d="M93.6,38.5c35.7,0,64.7,28.9,64.7,64.6c0,0,0,0.1,0,0.1c0,35.7-28.9,64.7-64.6,64.7
			c0,0-0.1,0-0.1,0c-35.7,0-64.7-28.9-64.7-64.6c0,0,0-0.1,0-0.1c0-35.7,28.9-64.7,64.6-64.7C93.5,38.5,93.6,38.5,93.6,38.5z
			 M93.6,155.7c29,0,52.5-23.5,52.5-52.5v0c0-29-23.5-52.5-52.5-52.5s-52.5,23.5-52.5,52.5S64.6,155.7,93.6,155.7z"/>
		<path id="Path_366471" class="st0" d="M159.5,171.8l-72.7-68.7l72.7-66.8l6.2,6.7l-65.5,60.2l65.5,61.9L159.5,171.8z"/>
		<circle id="Ellipse_20184" class="st0" cx="169" cy="33.2" r="15.8"/>
		<circle id="Ellipse_20185" class="st0" cx="93.6" cy="104.1" r="15.8"/>
		<circle id="Ellipse_20186" class="st0" cx="168" cy="171.5" r="15.8"/>
	</g>
</g>
</svg>
