<svg id="Layer_1" data-name="Layer 1" xmlns="http://www.w3.org/2000/svg" viewBox="0 0 256 256"><defs><style>.cls-1{fill:#00261a;}.cls-2{fill:#52cca3;}.cls-3{fill:#cafceb;}</style></defs><rect class="cls-1" width="256" height="249.6" rx="45.33333"/><g id="Group_3" data-name="Group 3"><rect id="Rectangle_2" data-name="Rectangle 2" class="cls-2" x="58.79681" y="147.02378" width="47.19257" height="47.19257"/><rect id="Rectangle_3" data-name="Rectangle 3" class="cls-2" x="155.12593" y="151.86661" width="37.49226" height="37.49226"/><rect id="Rectangle_4" data-name="Rectangle 4" class="cls-2" x="155.12593" y="60.22647" width="37.49226" height="37.49226"/><rect id="Rectangle_5" data-name="Rectangle 5" class="cls-2" x="63.65429" y="60.39498" width="37.49226" height="37.49226"/><path id="Path_3" data-name="Path 3" class="cls-3" d="M192.61818,60.22647V97.69675l-75.68053,38.34212,38.20782-75.81241h37.463m4.84283-4.84283H152.1709l-46.1815,91.645,91.47162-46.35v-45.295Z"/><path id="Path_4" data-name="Path 4" class="cls-3" d="M192.61818,151.8666v37.50446H155.19187L117.68251,151.8666h74.93567m4.84284-4.84283H105.9894l47.19745,47.19258h44.27663V147.02377Z"/><path id="Path_5" data-name="Path 5" class="cls-3" d="M101.14411,60.40475V135.3282L63.63964,97.81886V60.40475h37.50447m4.84284-4.84284H58.79681V99.83853l47.19258,47.18281V55.54971Z"/></g></svg>