<svg id="Layer_1" data-name="Layer 1" xmlns="http://www.w3.org/2000/svg" viewBox="0 0 240 234">
  <defs>
    <style>
      .cls-1 {
        fill: #d1d1d1;
      }

      .cls-2 {
        fill: #000b1d;
      }
    </style>
  </defs>
  <g>
    <path id="Path_8" data-name="Path 8" class="cls-1" d="M42.50286-.00286h155A42.50286,42.50286,0,0,1,240,42.5v149a42.50287,42.50287,0,0,1-42.49714,42.50286h-155A42.50286,42.50286,0,0,1,0,191.5V42.5A42.49715,42.49715,0,0,1,42.49143-.00286Z"/>
    <path id="_256" data-name=" 256" class="cls-2" d="M186.63452,175.94572H158.126a6.24006,6.24006,0,0,1-5.84569-3.77145l-30.94857-72.36a1.36564,1.36564,0,0,0-1.68379-.94608l-.03051.00893a1.36573,1.36573,0,0,0-.92573.90287L99.406,145.72281a1.63429,1.63429,0,0,0,.87019,2.14115l.0041.0017a1.64563,1.64563,0,0,0,.63424.12574h21.2a3.26858,3.26858,0,0,1,3.01139,1.99428l9.28,20.65713a3.8114,3.8114,0,0,1-2.01826,4.998l-.00462.002a3.80074,3.80074,0,0,1-1.48569.30286H53.72018a3.51463,3.51463,0,0,1-3.21141-4.90286L99.60022,54.14a6.64,6.64,0,0,1,6.26282-4.14281h28.31429A6.62859,6.62859,0,0,1,140.41164,54.14l49.42854,116.90286a3.5187,3.5187,0,0,1-3.20566,4.90287Z"/>
  </g>
</svg>
