<svg xmlns="http://www.w3.org/2000/svg" viewBox="0 0 512 512"><defs><style>.cls-1{fill:#fff;}.cls-2,.cls-4,.cls-5,.cls-6{fill:none;stroke:#fff;}.cls-2,.cls-4{stroke-linecap:round;stroke-linejoin:round;}.cls-2{stroke-width:8.05px;}.cls-3{fill:#555554;}.cls-4{stroke-width:7.6px;}.cls-5,.cls-6{stroke-miterlimit:10;stroke-width:7.6px;}.cls-5{stroke-dasharray:19.1 24.33;}.cls-6{stroke-dasharray:19.2 24.46;}</style></defs><title>512 x 512 copy</title><g id="Layer_3" data-name="Layer 3"><rect class="cls-1" x="0.16" y="0.04" width="510.6" height="510.6"/></g><g id="Layer_1" data-name="Layer 1"><g id="add_plus_blue_lg" data-name="add plus blue lg"><g id="add_plus_blue_lg-2" data-name="add plus blue lg"><line class="cls-2" x1="149.96" y1="385.6" x2="149.96" y2="425.93"/><line class="cls-2" x1="128.91" y1="405.76" x2="171.01" y2="405.76"/></g></g><path class="cls-3" d="M475.54,129.89l-59-44.17c-46.1-32.25-77.95-36.54-91.22-36.63a9.87,9.87,0,0,0-9,5.67,48.43,48.43,0,0,1-29.22,25.12,51.52,51.52,0,0,1-31.83,0,48.46,48.46,0,0,1-29.22-25.12,9.87,9.87,0,0,0-9-5.67c-13.27.09-45.12,4.38-91.22,36.63L67,129.89a3.84,3.84,0,0,0-1.26,4.5l30.23,75.93a3.84,3.84,0,0,0,5.21,2.05l61.6-29.13,3.52,135H224c8.81,0,19.68,6.22,19.1,22.25-.69,19-8.57,85.45-8.57,85.45H356.83a17.91,17.91,0,0,0,17.87-17.51l5.06-225.22,61.61,29.13a3.84,3.84,0,0,0,5.21-2.05l30.23-75.93A3.85,3.85,0,0,0,475.54,129.89Z"/><path class="cls-3" d="M219.45,327.35H112.28a121.42,121.42,0,0,0-15.48.88C72.61,330,53.72,350.07,56.67,375.37c3.18,27.28,28.42,48.48,51.73,60.59,3.17,18.08,6.77,31.81,10.49,33.68a10.9,10.9,0,0,0,4.84,1.07H208a9.84,9.84,0,0,0,4.84-1.07c10.13-5.71,19-95.33,21.66-126A15,15,0,0,0,219.45,327.35Zm-141,65.47c-13.48-20.56-7-48.14,18.67-50.28,0,.26.1.91.12,1.1,1.33,15.64,4.35,46.79,8.3,74.23C95,411.17,84.91,402.69,78.44,392.82Z"/><g id="add_plus_blue_lg-3" data-name="add plus blue lg"><g id="add_plus_blue_lg-4" data-name="add plus blue lg"><line class="cls-4" x1="271.25" y1="152.64" x2="271.25" y2="233.99"/><line class="cls-4" x1="229.07" y1="191.8" x2="313.43" y2="191.8"/></g></g><path class="cls-5" d="M330.27,262.21h-118a8,8,0,0,1-8-8V137.4a8,8,0,0,1,8-8h118c4.41,0,8.23-.57,8,8V254.22A8,8,0,0,1,330.27,262.21Z"/><path class="cls-6" d="M206.62,441.57H126.49a2,2,0,0,1-2-2V351.13c0-1.1,2-2,2-2h80.13a2,2,0,0,1,2,2v88.44S207.89,441.57,206.62,441.57Z"/><g id="add_plus_blue_lg-5" data-name="add plus blue lg"><g id="add_plus_blue_lg-6" data-name="add plus blue lg"><line class="cls-4" x1="166.56" y1="376.3" x2="166.56" y2="414.4"/><line class="cls-4" x1="146.67" y1="395.35" x2="186.44" y2="395.35"/></g></g></g></svg>