<?xml version="1.0" encoding="utf-8"?>
<!-- Generator: Adobe Illustrator 19.2.0, SVG Export Plug-In . SVG Version: 6.00 Build 0)  -->
<!DOCTYPE svg PUBLIC "-//W3C//DTD SVG 1.1//EN" "http://www.w3.org/Graphics/SVG/1.1/DTD/svg11.dtd">
<svg version="1.1" id="ai_x5F_cc_x5F_app_x5F_RGB.svg"
	 xmlns="http://www.w3.org/2000/svg" xmlns:xlink="http://www.w3.org/1999/xlink" x="0px" y="0px" viewBox="0 0 240 234"
	 style="enable-background:new 0 0 240 234;" xml:space="preserve">
<style type="text/css">
	.st0{fill-rule:evenodd;clip-rule:evenodd;fill:#260C00;}
	.st1{fill-rule:evenodd;clip-rule:evenodd;fill:#FF6000;}
	.st2{fill:#FEDCCA;}
	.st3{fill:#FF6000;}
</style>
<g>
	<rect x="10" y="10" class="st0" width="220" height="214"/>
</g>
<g>
	<path class="st1" d="M0,0v234h240V0H0z M10,10h220v214H10V10z"/>
</g>
<g>
	<g>
		<path class="st2" d="M182.3,171.3H57.7c-7.4,0-9.7-2.4-9.7-9.8V71.1c0-7.4,2.4-9.8,9.7-9.8h124.5c7.4,0,9.7,2.4,9.7,9.8v90.5
			C192,168.9,189.6,171.3,182.3,171.3z M57.7,65.3c-5.1,0-5.7,0.6-5.7,5.8v90.5c0,5.2,0.6,5.8,5.7,5.8h124.5c5.1,0,5.7-0.6,5.7-5.8
			V71.1c0-5.2-0.6-5.8-5.7-5.8H57.7z"/>
	</g>
	<g>
		<path class="st3" d="M57,162.3h61v-92H57V162.3z M67,93h44v2H67V93z M67,102.1h44v2H67V102.1z M67,111h44v2H67V111z M67,120h44v2
			H67V120z M67,129.1h44v2H67V129.1z M67,138h44v2H67V138z"/>
		<path class="st3" d="M158.7,70.3H122v92h61V94.2L158.7,70.3z M129.3,92.5h24.5v2h-24.5V92.5z M129.3,101.6l43.6,0.2l0,2l-43.6-0.2
			L129.3,101.6z M173.3,139.5h-44.1v-2h44.1V139.5z M173.3,130.6h-44.1v-2h44.1V130.6z M173.3,121.5h-44.1v-2h44.1V121.5z
			 M173.3,112.5h-44.1v-2h44.1V112.5z M158.3,94.6V72.4L181,94.6H158.3z"/>
	</g>
</g>
</svg>
