<svg xmlns="http://www.w3.org/2000/svg" viewBox="0 0 240 234"><defs><style>.cls-1{fill:#470137;}.cls-2{fill:#ff61f6;}</style></defs><title>Asset 108</title><g id="Layer_2" data-name="Layer 2"><g id="Surfaces"><g id="UI_UX_Surface" data-name="UI/UX Surface"><g id="Outline_no_shadow" data-name="Outline no shadow"><rect class="cls-1" width="240" height="234" rx="42.5"/></g></g></g><g id="Outlined_Mnemonics_Logos" data-name="Outlined Mnemonics &amp; Logos"><g id="Dw"><path class="cls-2" d="M22.79165,163.77319V61.3772a1.154,1.154,0,0,1,1.07061-1.28784q2.29406-.15858,6.72978-.24146,4.43435-.07947,10.40037-.16113,5.9651-.07911,12.69512-.08057,18.35382,0,30.43711,6.60108a43.38642,43.38642,0,0,1,18.12421,18.11254q6.04026,11.51257,6.04187,26.48438a61.904,61.904,0,0,1-3.13574,20.52759,48.50033,48.50033,0,0,1-8.56531,15.37549,51.60105,51.60105,0,0,1-12.31242,10.70654A52.6561,52.6561,0,0,1,69.594,163.69287a61.57744,61.57744,0,0,1-15.44771,2.01245H42.75139q-6.04373,0-11.24182-.08056-5.20112-.08313-7.80039-.24146Q22.79142,165.3833,22.79165,163.77319Zm21.10689-84.364v66.65405q1.68105,0,3.0592.08057,1.37629.08313,2.82959.16089,1.45144.08313,3.28836.08056a39.105,39.105,0,0,0,13.61264-2.2539,27.65111,27.65111,0,0,0,10.47691-6.762A30.60459,30.60459,0,0,0,83.895,126.26025a44.13817,44.13817,0,0,0,2.37083-14.9729,39.56635,39.56635,0,0,0-2.29429-14.08764A26.24931,26.24931,0,0,0,66.91748,81.01929,43.24974,43.24974,0,0,0,53.68753,79.0874q-3.06153,0-5.12388.08032Q46.49851,79.25085,43.89854,79.40918Z"/><path class="cls-2" d="M197.8317,165.39883H179.11545a1.42488,1.42488,0,0,1-1.19792-.40259,4.85239,4.85239,0,0,1-.59851-1.20752q-2.84653-12.0747-4.79168-21.33227-1.94741-9.25635-3.21912-15.69751-1.27376-6.43762-2.09613-10.948-.82488-4.50549-1.27285-7.56714h-.1494q-1.49853,6.60353-2.77,12.79956-1.27443,6.19959-2.77,12.47754-1.49853,6.27906-3.369,13.84595-1.87385,7.56959-4.11779,16.42187c-.20117,1.07422-.74836,1.61011-1.647,1.61011H132.39975a2.25187,2.25187,0,0,1-1.42224-.322,2.7092,2.7092,0,0,1-.67389-1.12695l-19.46506-77.28q-.44889-1.28687,1.19792-1.28809h18.8661q1.34732,0,1.49717.96607,2.99367,13.20336,5.016,22.78149,2.02165,9.58082,3.1442,16.34155,1.12322,6.76209,1.8718,11.02857.74723,4.26746,1.19792,7.00341h.29926a41.10162,41.10162,0,0,1,.74881-4.66894q.59668-2.89819,1.49717-7.48657.89844-4.58862,2.246-10.86743,1.34732-6.27906,3.06927-14.57056,1.71991-8.29029,4.5669-18.91748a3.4155,3.4155,0,0,1,.37463-1.28809c.1494-.21386.524-.322,1.12254-.322h19.61492c.599,0,.94726.37744,1.04807,1.1272q2.54411,10.95043,4.26719,19.2395,1.71992,8.29395,2.9948,14.65088,1.27035,6.36217,1.94628,10.948.67366,4.58862,1.27285,7.728a48.99622,48.99622,0,0,1,.74881,5.07154h.29925q.74723-3.0564,1.34778-7.084.596-4.02246,1.57209-9.09668.972-5.07129,2.09614-11.18945,1.12321-6.11646,2.77-13.68481,1.64566-7.56592,3.74316-16.42212.29834-1.28687,1.34777-1.28809h17.51833q1.34732,0,1.04807,1.449l-21.5612,77.11914a3.5396,3.5396,0,0,1-.599,1.12695A1.6416,1.6416,0,0,1,197.8317,165.39883Z"/></g></g></g></svg>