<svg id="Layer_1" data-name="Layer 1" xmlns="http://www.w3.org/2000/svg" viewBox="0 0 240 234">
  <defs>
    <style>
      .cls-1 {
        fill: #000b1d;
      }

      .cls-2 {
        fill: #fff;
      }
    </style>
  </defs>
  <g>
    <rect class="cls-1" width="240" height="234" rx="42.5"/>
    <path class="cls-2" d="M132.29405,97.98658c-5.60328,18.77987-10.31839,36.88292-15.92167,54.60221-3.1808,9.99579-6.66385,19.5373-11.05544,25.59485-4.84677,6.815-13.934,13.32771-24.83742,13.32771-7.72443,0-15.29683-3.63508-15.29683-11.66175,0-4.99789,5.149-9.69263,9.23836-9.69263a4.6069,4.6069,0,0,1,4.24047,2.42339c3.7862,6.815,7.42128,10.75229,9.08724,10.75229s3.02878-2.27136,5.7544-12.1151l19.87839-73.21847L99.0797,97.98319c-1.06057-3.18081.44852-6.98919,2.2656-7.74661h14.23625c2.72562-8.78409,5.93984-17.76333,10.48346-25.79,6.815-12.26713,17.7193-21.95976,32.71206-21.95976,11.35859,0,16.05333,5.45216,16.05333,12.41916-.15112,7.42037-6.66294,11.20656-9.69263,11.20656-2.42247,0-3.63416-1.81708-4.39159-4.39158-2.5745-9.69263-5.90643-12.57029-7.87554-12.57029-1.9682,0-4.99789,3.63416-8.32891,11.20656-4.3925,9.54151-7.34706,19.93449-10.07268,29.92935l17.32-.0227c1.05965,2.12024.1987,6.50922-2.37581,7.72091Z"/>
  </g>
</svg>
