<?xml version="1.0" encoding="utf-8"?>
<!-- Generator: Adobe Illustrator 21.0.0, SVG Export Plug-In . SVG Version: 6.00 Build 0)  -->
<svg version="1.1" id="fmserver_x5F_13_x5F_app_x5F_RGB.svg"
	 xmlns="http://www.w3.org/2000/svg" xmlns:xlink="http://www.w3.org/1999/xlink" x="0px" y="0px" viewBox="0 0 240 234"
	 style="enable-background:new 0 0 240 234;" xml:space="preserve">
<g>
	<path style="fill-rule:evenodd;clip-rule:evenodd;fill:#FFEDCC;" d="M0,0v234h240V0H0z M10,10h220v214H10V10z"/>
</g>
<g>
	<rect x="10" y="10" style="fill-rule:evenodd;clip-rule:evenodd;fill:#261A00;" width="220" height="214"/>
</g>
<path style="fill-rule:evenodd;clip-rule:evenodd;fill:#FFEDCC;" d="M53,163.6c0,1-0.3,1.4-1.1,1.4H36.1c-0.8,0-1.1-0.3-1.1-1.3
	V59.1c0-0.8,0.3-1.1,1.1-1.1h53.7c1,0,1.1,0.3,1.3,1.1l1.6,13.6c0.2,1-0.3,1.3-1.3,1.3H53v30h35.2c0.8,0,0.8,0.2,0.8,1.1v13.7
	c0,1-0.3,1.1-1.1,1.1H53V163.6z M177.2,84.5c11.8,0,26.8,5.3,26.8,28.8v50.3c0,1-0.3,1.3-1.1,1.3h-14.7c-0.8,0-1.1-0.5-1.1-1.3
	v-49.2c0-9.5-3.6-14.7-13.4-14.7c-4.8,0-8.7,1-12.1,2.3c1,2.9,1.4,6.9,1.4,11.1v50.5c0,1-0.3,1.3-1.1,1.3h-14.6
	c-1,0-1.3-0.5-1.3-1.3v-49.2c0-9.5-4-14.7-13.5-14.7c-4.4,0-7.3,1-10.5,2.1v61.9c0,0.7-0.2,1.1-1,1.1h-14.9c-0.8,0-1.1-0.3-1.1-1.1
	v-61.6c0-1,0-4.4-0.5-9.8c0-0.8,0.3-0.8,1-1.1c7.9-3.1,19-6.8,30-6.8c7.2,0,13.5,1.4,18.7,5.3C160.6,87.1,167.7,84.5,177.2,84.5z"/>
</svg>
