<svg width="1021" height="996" viewBox="0 0 1021 996" fill="none" xmlns="http://www.w3.org/2000/svg">
<g clip-path="url(#clip0_302_105)">
<g clip-path="url(#clip1_302_105)">
<rect width="996" height="996" transform="translate(12)" fill="url(#paint0_linear_302_105)"/>
<g opacity="0.5" filter="url(#filter0_dddddddd_302_105)">
<path d="M287.497 835.662C260.12 835.662 241.979 807.007 251.879 781.483C285.829 693.952 304.452 598.777 304.452 499.252C304.452 399.728 285.829 304.553 251.879 217.022C241.979 191.498 260.12 162.843 287.497 162.843C302.396 162.843 315.93 171.703 321.386 185.567C359.62 282.714 380.62 388.531 380.62 499.252C380.62 609.974 359.62 715.791 321.386 812.938C315.93 826.802 302.396 835.662 287.497 835.662Z" fill="url(#paint1_linear_302_105)"/>
<path d="M470.137 759.494C445.058 759.494 426.989 735.428 432.658 710.998C448.444 642.968 456.788 572.085 456.788 499.252C456.788 426.42 448.444 355.537 432.658 287.507C426.989 263.076 445.058 239.011 470.137 239.011C487.206 239.011 502.213 250.473 506.124 267.087C523.672 341.627 532.957 419.356 532.957 499.252C532.957 579.149 523.672 656.878 506.124 731.418C502.213 748.032 487.206 759.494 470.137 759.494Z" fill="url(#paint2_linear_302_105)"/>
<path d="M642.747 645.241C619.799 645.241 602.16 625.016 604.309 602.168C607.495 568.292 609.125 533.962 609.125 499.252C609.125 464.542 607.495 430.213 604.309 396.336C602.16 373.489 619.799 353.263 642.747 353.263C661.864 353.263 678.06 367.489 679.892 386.518C683.465 423.614 685.293 461.22 685.293 499.252C685.293 537.285 683.465 574.891 679.892 611.987C678.06 631.016 661.864 645.241 642.747 645.241Z" fill="url(#paint3_linear_302_105)"/>
<path d="M801.177 450.558L822.942 472.323C837.814 487.196 837.814 511.309 822.942 526.182L801.177 547.947C785.182 563.941 757.834 552.613 757.834 529.994V468.511C757.834 445.892 785.182 434.564 801.177 450.558Z" fill="url(#paint4_linear_302_105)"/>
</g>
<g filter="url(#filter1_iii_302_105)">
<path d="M287.497 835.662C260.12 835.662 241.979 807.007 251.879 781.483C285.829 693.952 304.452 598.777 304.452 499.252C304.452 399.728 285.829 304.553 251.879 217.022C241.979 191.498 260.12 162.843 287.497 162.843C302.396 162.843 315.93 171.703 321.386 185.567C359.62 282.714 380.62 388.531 380.62 499.252C380.62 609.974 359.62 715.791 321.386 812.938C315.93 826.802 302.396 835.662 287.497 835.662Z" fill="url(#paint5_linear_302_105)"/>
<path d="M470.137 759.494C445.058 759.494 426.989 735.428 432.658 710.998C448.444 642.968 456.788 572.085 456.788 499.252C456.788 426.42 448.444 355.537 432.658 287.507C426.989 263.076 445.058 239.011 470.137 239.011C487.206 239.011 502.213 250.473 506.124 267.087C523.672 341.627 532.957 419.356 532.957 499.252C532.957 579.149 523.672 656.878 506.124 731.418C502.213 748.032 487.206 759.494 470.137 759.494Z" fill="url(#paint6_linear_302_105)"/>
<path d="M642.747 645.241C619.799 645.241 602.16 625.016 604.309 602.168C607.495 568.292 609.125 533.962 609.125 499.252C609.125 464.542 607.495 430.213 604.309 396.336C602.16 373.489 619.799 353.263 642.747 353.263C661.864 353.263 678.06 367.489 679.892 386.518C683.465 423.614 685.293 461.22 685.293 499.252C685.293 537.285 683.465 574.891 679.892 611.987C678.06 631.016 661.864 645.241 642.747 645.241Z" fill="url(#paint7_linear_302_105)"/>
<path d="M801.177 450.558L822.942 472.323C837.814 487.196 837.814 511.309 822.942 526.182L801.177 547.947C785.182 563.941 757.834 552.613 757.834 529.994V468.511C757.834 445.892 785.182 434.564 801.177 450.558Z" fill="url(#paint8_linear_302_105)"/>
</g>
</g>
</g>
<defs>
<filter id="filter0_dddddddd_302_105" x="234.691" y="162.178" width="767.106" height="974.13" filterUnits="userSpaceOnUse" color-interpolation-filters="sRGB">
<feFlood flood-opacity="0" result="BackgroundImageFix"/>
<feColorMatrix in="SourceAlpha" type="matrix" values="0 0 0 0 0 0 0 0 0 0 0 0 0 0 0 0 0 0 127 0" result="hardAlpha"/>
<feOffset dx="0.778211" dy="2.12844"/>
<feGaussianBlur stdDeviation="1.39639"/>
<feColorMatrix type="matrix" values="0 0 0 0 0.129412 0 0 0 0 0.129412 0 0 0 0 0.482353 0 0 0 0.0648125 0"/>
<feBlend mode="normal" in2="BackgroundImageFix" result="effect1_dropShadow_302_105"/>
<feColorMatrix in="SourceAlpha" type="matrix" values="0 0 0 0 0 0 0 0 0 0 0 0 0 0 0 0 0 0 127 0" result="hardAlpha"/>
<feOffset dx="3.3523" dy="9.16867"/>
<feGaussianBlur stdDeviation="2.63269"/>
<feColorMatrix type="matrix" values="0 0 0 0 0.129412 0 0 0 0 0.129412 0 0 0 0 0.482353 0 0 0 0.1105 0"/>
<feBlend mode="normal" in2="effect1_dropShadow_302_105" result="effect2_dropShadow_302_105"/>
<feColorMatrix in="SourceAlpha" type="matrix" values="0 0 0 0 0 0 0 0 0 0 0 0 0 0 0 0 0 0 127 0" result="hardAlpha"/>
<feOffset dx="8.08142" dy="22.103"/>
<feGaussianBlur stdDeviation="4.40264"/>
<feColorMatrix type="matrix" values="0 0 0 0 0.129412 0 0 0 0 0.129412 0 0 0 0 0.482353 0 0 0 0.143438 0"/>
<feBlend mode="normal" in2="effect2_dropShadow_302_105" result="effect3_dropShadow_302_105"/>
<feColorMatrix in="SourceAlpha" type="matrix" values="0 0 0 0 0 0 0 0 0 0 0 0 0 0 0 0 0 0 127 0" result="hardAlpha"/>
<feOffset dx="15.3248" dy="41.9139"/>
<feGaussianBlur stdDeviation="7.39999"/>
<feColorMatrix type="matrix" values="0 0 0 0 0.129412 0 0 0 0 0.129412 0 0 0 0 0.482353 0 0 0 0.17 0"/>
<feBlend mode="normal" in2="effect3_dropShadow_302_105" result="effect4_dropShadow_302_105"/>
<feColorMatrix in="SourceAlpha" type="matrix" values="0 0 0 0 0 0 0 0 0 0 0 0 0 0 0 0 0 0 127 0" result="hardAlpha"/>
<feOffset dx="25.4415" dy="69.5837"/>
<feGaussianBlur stdDeviation="12.3185"/>
<feColorMatrix type="matrix" values="0 0 0 0 0.129412 0 0 0 0 0.129412 0 0 0 0 0.482353 0 0 0 0.196562 0"/>
<feBlend mode="normal" in2="effect4_dropShadow_302_105" result="effect5_dropShadow_302_105"/>
<feColorMatrix in="SourceAlpha" type="matrix" values="0 0 0 0 0 0 0 0 0 0 0 0 0 0 0 0 0 0 127 0" result="hardAlpha"/>
<feOffset dx="38.7908" dy="106.095"/>
<feGaussianBlur stdDeviation="19.8519"/>
<feColorMatrix type="matrix" values="0 0 0 0 0.129412 0 0 0 0 0.129412 0 0 0 0 0.482353 0 0 0 0.2295 0"/>
<feBlend mode="normal" in2="effect5_dropShadow_302_105" result="effect6_dropShadow_302_105"/>
<feColorMatrix in="SourceAlpha" type="matrix" values="0 0 0 0 0 0 0 0 0 0 0 0 0 0 0 0 0 0 127 0" result="hardAlpha"/>
<feOffset dx="55.7319" dy="152.429"/>
<feGaussianBlur stdDeviation="30.6939"/>
<feColorMatrix type="matrix" values="0 0 0 0 0.129412 0 0 0 0 0.129412 0 0 0 0 0.482353 0 0 0 0.275187 0"/>
<feBlend mode="normal" in2="effect6_dropShadow_302_105" result="effect7_dropShadow_302_105"/>
<feColorMatrix in="SourceAlpha" type="matrix" values="0 0 0 0 0 0 0 0 0 0 0 0 0 0 0 0 0 0 127 0" result="hardAlpha"/>
<feOffset dx="76.6239" dy="209.57"/>
<feGaussianBlur stdDeviation="45.5384"/>
<feColorMatrix type="matrix" values="0 0 0 0 0.129412 0 0 0 0 0.129412 0 0 0 0 0.482353 0 0 0 0.34 0"/>
<feBlend mode="normal" in2="effect7_dropShadow_302_105" result="effect8_dropShadow_302_105"/>
<feBlend mode="normal" in="SourceGraphic" in2="effect8_dropShadow_302_105" result="shape"/>
</filter>
<filter id="filter1_iii_302_105" x="245.728" y="149.181" width="591.783" height="695.589" filterUnits="userSpaceOnUse" color-interpolation-filters="sRGB">
<feFlood flood-opacity="0" result="BackgroundImageFix"/>
<feBlend mode="normal" in="SourceGraphic" in2="BackgroundImageFix" result="shape"/>
<feColorMatrix in="SourceAlpha" type="matrix" values="0 0 0 0 0 0 0 0 0 0 0 0 0 0 0 0 0 0 127 0" result="hardAlpha"/>
<feOffset dx="3.41538" dy="9.10768"/>
<feGaussianBlur stdDeviation="5.6923"/>
<feComposite in2="hardAlpha" operator="arithmetic" k2="-1" k3="1"/>
<feColorMatrix type="matrix" values="0 0 0 0 1 0 0 0 0 1 0 0 0 0 1 0 0 0 0.7 0"/>
<feBlend mode="normal" in2="shape" result="effect1_innerShadow_302_105"/>
<feColorMatrix in="SourceAlpha" type="matrix" values="0 0 0 0 0 0 0 0 0 0 0 0 0 0 0 0 0 0 127 0" result="hardAlpha"/>
<feOffset dx="-3.41538" dy="-6.83076"/>
<feGaussianBlur stdDeviation="10.2461"/>
<feComposite in2="hardAlpha" operator="arithmetic" k2="-1" k3="1"/>
<feColorMatrix type="matrix" values="0 0 0 0 0.341176 0 0 0 0 0.309804 0 0 0 0 0.964706 0 0 0 0.7 0"/>
<feBlend mode="normal" in2="effect1_innerShadow_302_105" result="effect2_innerShadow_302_105"/>
<feColorMatrix in="SourceAlpha" type="matrix" values="0 0 0 0 0 0 0 0 0 0 0 0 0 0 0 0 0 0 127 0" result="hardAlpha"/>
<feOffset dy="-13.6615"/>
<feGaussianBlur stdDeviation="6.83076"/>
<feComposite in2="hardAlpha" operator="arithmetic" k2="-1" k3="1"/>
<feColorMatrix type="matrix" values="0 0 0 0 0.28 0 0 0 0 0.92 0 0 0 0 0.92 0 0 0 0.54 0"/>
<feBlend mode="normal" in2="effect2_innerShadow_302_105" result="effect3_innerShadow_302_105"/>
</filter>
<linearGradient id="paint0_linear_302_105" x1="495.673" y1="311.357" x2="829.014" y2="900.451" gradientUnits="userSpaceOnUse">
<stop stop-color="#5B53FF"/>
<stop offset="1" stop-color="#312B9F"/>
</linearGradient>
<linearGradient id="paint1_linear_302_105" x1="760.822" y1="616.652" x2="458.587" y2="417.593" gradientUnits="userSpaceOnUse">
<stop stop-color="#AFABFF"/>
<stop offset="1" stop-color="#F0EFFD"/>
</linearGradient>
<linearGradient id="paint2_linear_302_105" x1="760.822" y1="616.652" x2="458.587" y2="417.593" gradientUnits="userSpaceOnUse">
<stop stop-color="#AFABFF"/>
<stop offset="1" stop-color="#F0EFFD"/>
</linearGradient>
<linearGradient id="paint3_linear_302_105" x1="760.822" y1="616.652" x2="458.587" y2="417.593" gradientUnits="userSpaceOnUse">
<stop stop-color="#AFABFF"/>
<stop offset="1" stop-color="#F0EFFD"/>
</linearGradient>
<linearGradient id="paint4_linear_302_105" x1="760.822" y1="616.652" x2="458.587" y2="417.593" gradientUnits="userSpaceOnUse">
<stop stop-color="#AFABFF"/>
<stop offset="1" stop-color="#F0EFFD"/>
</linearGradient>
<linearGradient id="paint5_linear_302_105" x1="760.822" y1="616.652" x2="458.587" y2="417.593" gradientUnits="userSpaceOnUse">
<stop stop-color="#AFABFF"/>
<stop offset="1" stop-color="#F0EFFD"/>
</linearGradient>
<linearGradient id="paint6_linear_302_105" x1="760.822" y1="616.652" x2="458.587" y2="417.593" gradientUnits="userSpaceOnUse">
<stop stop-color="#AFABFF"/>
<stop offset="1" stop-color="#F0EFFD"/>
</linearGradient>
<linearGradient id="paint7_linear_302_105" x1="760.822" y1="616.652" x2="458.587" y2="417.593" gradientUnits="userSpaceOnUse">
<stop stop-color="#AFABFF"/>
<stop offset="1" stop-color="#F0EFFD"/>
</linearGradient>
<linearGradient id="paint8_linear_302_105" x1="760.822" y1="616.652" x2="458.587" y2="417.593" gradientUnits="userSpaceOnUse">
<stop stop-color="#AFABFF"/>
<stop offset="1" stop-color="#F0EFFD"/>
</linearGradient>
<clipPath id="clip0_302_105">
<rect x="12" width="996" height="996" rx="178.969" fill="white"/>
</clipPath>
<clipPath id="clip1_302_105">
<rect width="996" height="996" fill="white" transform="translate(12)"/>
</clipPath>
</defs>
</svg>
