<?xml version="1.0" encoding="utf-8"?>
<!-- Generator: Adobe Illustrator 21.1.0, SVG Export Plug-In . SVG Version: 6.00 Build 0)  -->
<svg version="1.1" id="mnemonic" xmlns="http://www.w3.org/2000/svg" xmlns:xlink="http://www.w3.org/1999/xlink" x="0px" y="0px"
	 viewBox="0 0 240 234" style="enable-background:new 0 0 240 234;" xml:space="preserve">
<style type="text/css">
	.st0{fill:#DBDCDD;}
	.st1{fill:#510F17;}
</style>
<rect class="st0" width="240" height="234"/>
<path class="st1" d="M123.6,189.7c4.1-2.7,7.3-10.9,10.1-22.7h-20.2C116.3,178.8,119.5,187,123.6,189.7z M103.3,105
	c1.2,8,2.3,16,3.5,24h31.9c-1.2-8-2.3-16-3.5-24H103.3z M107.8,136c1.3,8.6,2.7,16.7,4.2,24h23.2c1.5-7.3,2.9-15.4,4.2-24H107.8z
	 M107.2,74c-1.5,7.3-2.9,15.4-4.2,24h31.1c-1.3-8.6-2.7-16.7-4.2-24H107.2z M118.6,43.4c-4,2.9-7.2,12-9.9,23.6h19.8
	C125.8,55.4,122.6,46.3,118.6,43.4z M104.7,160c-1.5-7.3-2.9-15.4-4.2-24h-42c1.3,8.6,2.7,16.7,4.2,24H104.7z M94.9,98
	c-1.3-8.6-2.7-16.7-4.2-24h-42c1.5,7.3,2.9,15.4,4.2,24H94.9z M99.5,129c-1.2-8-2.3-16-3.5-24H54c1.2,8,2.3,16,3.5,24H99.5z
	 M77.2,191h42c-5.5,0-9.5-9.6-12.9-24h-42C67.6,181.4,71.7,191,77.2,191z M76.3,43h-42c5.5,0,9.5,9.6,12.9,24h42
	C85.9,52.6,81.8,43,76.3,43z M142.5,105c1.2,8,2.3,16,3.5,24h42c-1.2-8-2.3-16-3.5-24H142.5z M147.1,136c1.3,8.6,2.7,16.7,4.2,24h42
	c-1.5-7.3-2.9-15.4-4.2-24H147.1z M137.3,74c1.5,7.3,2.8,15.4,4.2,24h42c-1.3-8.6-2.7-16.7-4.2-24H137.3z M165.7,191h41.9
	c-5.5,0-9.5-9.6-12.9-24h-42C156.1,181.4,160.2,191,165.7,191z M135.8,67h42c-3.4-14.4-7.5-24-12.9-24h-42
	C128.3,43,132.4,52.6,135.8,67z"/>
</svg>
