<svg xmlns="http://www.w3.org/2000/svg" viewBox="0 0 240 234"><defs><style>.cls-1{fill:#49021f;}.cls-2{fill:#f36;}</style></defs><title>Asset 100</title><g id="Layer_2" data-name="Layer 2"><g id="Surfaces"><g id="Publishing_Surface" data-name="Publishing Surface"><g id="Outline_no_shadow" data-name="Outline no shadow"><rect class="cls-1" width="240" height="234" rx="42.5"/></g></g></g><g id="Outlined_Mnemonics_Logos" data-name="Outlined Mnemonics &amp; Logos"><g id="Ic"><path class="cls-2" d="M96.49609,61.21631V163.77319q0,1.61133-1.44873,1.61011H75.56592q-1.28981,0-1.2876-1.61011V61.21631q0-1.28686,1.44873-1.28809H95.208A1.13916,1.13916,0,0,1,96.49609,61.21631Z"/><path class="cls-2" d="M173.293,146.54639v16.583a1.58323,1.58323,0,0,1-.80469,1.449,32.223,32.223,0,0,1-8.5332,1.93188q-4.82959.483-9.33789.48316a49.15747,49.15747,0,0,1-17.8711-3.05908,36.90879,36.90879,0,0,1-13.36279-8.6941,39.42369,39.42369,0,0,1-8.45264-13.2019,43.96084,43.96084,0,0,1-2.97851-16.261,41.341,41.341,0,0,1,5.63525-21.65454,40.06428,40.06428,0,0,1,15.8584-14.89258q10.22241-5.47155,23.9082-5.47387a61.44138,61.44138,0,0,1,9.499.56347,44.25928,44.25928,0,0,1,5.47412,1.20752,1.8953,1.8953,0,0,1,.80517,1.771l-.16113,16.583q0,1.44909-1.28808,1.127a29.04977,29.04977,0,0,0-5.47413-1.36841,49.79892,49.79892,0,0,0-8.0498-.56347,28.46821,28.46821,0,0,0-11.91406,2.41479,18.9705,18.9705,0,0,0-8.37207,7.24512q-3.06006,4.83-3.05909,12.23608,0,8.373,3.62256,13.20191a19.61436,19.61436,0,0,0,9.17725,6.84253,32.59531,32.59531,0,0,0,11.18945,2.01245,68.49913,68.49913,0,0,0,7.728-.40259,28.146,28.146,0,0,0,5.47412-1.04639Q173.2915,145.25953,173.293,146.54639Z"/></g></g></g></svg>