<svg xmlns="http://www.w3.org/2000/svg" viewBox="0 0 240 234"><defs><style>.cls-1{fill:#00005b;}.cls-2{fill:#99f;}</style></defs><title>Asset 106</title><g id="Layer_2" data-name="Layer 2"><g id="Surfaces"><g id="Video_Audio_Surface" data-name="Video/Audio Surface"><g id="Outline_no_shadow" data-name="Outline no shadow"><rect class="cls-1" width="240" height="234" rx="42.5"/></g></g></g><g id="Outlined_Mnemonics_Logos" data-name="Outlined Mnemonics &amp; Logos"><g id="Me"><path class="cls-2" d="M33.84038,60.89844a1.07979,1.07979,0,0,1,1.22368-.96606H63.20688a1.52823,1.52823,0,0,1,1.68245,1.1272q1.068,4.18835,2.6,10.0625,1.52729,5.87879,3.28836,12.96045,1.75689,7.08654,3.5945,14.49,1.83554,7.40735,3.59451,14.40942,1.7562,7.00343,2.9822,12.88013,1.22253,5.87879,1.9886,9.74048h.15308q.60882-3.38123,2.14121-9.01612,1.52658-5.63379,3.5175-12.63843,1.98651-7.00341,4.05327-14.40966,2.06514-7.40333,4.05328-14.65088,1.9858-7.24512,3.74712-13.44361,1.75689-6.19592,2.82959-10.38427a1.33567,1.33567,0,0,1,1.37675-1.1272h27.37791a1.21606,1.21606,0,0,1,1.37676,1.1272l3.67058,102.8789a1.073,1.073,0,0,1-.22915,1.04639,1.31054,1.31054,0,0,1-.99453.40259H116.12763a1.19507,1.19507,0,0,1-.76491-.24146,1.069,1.069,0,0,1-.30569-.8855q0-8.21118-.07654-17.22705-.07932-9.01464-.22962-18.11255-.15377-9.09375,0-17.4685.151-8.36938.15308-15.45606,0-7.08252.07654-12.3164.07515-5.22986.07654-7.8086H114.904q-.91776,4.0265-2.44736,10.54566-1.53077,6.52038-3.59405,14.65088-2.06512,8.13171-4.43549,16.82446-2.37337,8.69421-4.58858,17.22705-2.21891,8.53564-4.28288,15.939-2.06445,7.40735-3.44143,13.041a1.69161,1.69161,0,0,1-1.68245,1.28809H73.14848a1.6445,1.6445,0,0,1-1.83552-1.28809q-1.37629-5.63379-3.13528-13.041-1.76037-7.40332-3.59451-15.45581-1.83481-8.049-3.90019-16.50269-2.06443-8.45252-3.9002-16.34131-1.83482-7.88672-3.28835-14.812-1.45562-6.92066-2.67651-12.23608h-.30616v12.719q0,7.40734-.22915,16.34155-.2296,8.93555-.45876,18.676-.22962,9.743-.5353,20.125-.30825,10.38427-.76492,20.52734c0,.86035-.40867,1.28809-1.22368,1.28809H29.558a1.83142,1.83142,0,0,1-.99406-.24146q-.38409-.24169-.22962-1.20752Z"/><path class="cls-2" d="M196.67432,130.25122h-31.7168a20.74008,20.74008,0,0,0,3.05908,8.45264,16.56436,16.56436,0,0,0,7.3252,6.03735q4.90942,2.2566,12.7998,2.25415a58.43054,58.43054,0,0,0,10.38428-.8855,43.29305,43.29305,0,0,0,9.41846-2.81762c.53564-.42749.80517-.16089.80517.80517v15.29492a2.38427,2.38427,0,0,1-.2417,1.20752,2.30981,2.30981,0,0,1-.72461.72437,45.14814,45.14814,0,0,1-10.46484,3.46167,70.76093,70.76093,0,0,1-14.168,1.20752q-11.43384,0-19.15918-3.542a34.14679,34.14679,0,0,1-12.55762-9.499,37.19779,37.19779,0,0,1-6.92334-13.12158,51.668,51.668,0,0,1-2.09277-14.57056,50.74576,50.74576,0,0,1,2.49561-15.85839,41.42459,41.42459,0,0,1,7.48632-13.68506,35.96394,35.96394,0,0,1,12.0752-9.499,37.76341,37.76341,0,0,1,16.74365-3.46142,36.33453,36.33453,0,0,1,15.53662,3.05884,28.09974,28.09974,0,0,1,10.54541,8.2915,36.61534,36.61534,0,0,1,5.957,11.35059,40.44772,40.44772,0,0,1,1.93213,12.23608q0,3.54309-.2417,6.43994-.241,2.89784-.40234,4.186a1.45875,1.45875,0,0,1-1.44922,1.28808q-.96606,0-3.30029.24146-2.3357.24133-5.7959.322Q200.53565,130.25365,196.67432,130.25122Zm-31.7168-15.61694h21.09082q3.86425,0,5.71533-.08057a11.3564,11.3564,0,0,0,2.335-.24145v-.96607a12.88035,12.88035,0,0,0-.644-3.70288,13.15261,13.15261,0,0,0-13.041-9.177,13.98587,13.98587,0,0,0-13.28271,7.56689A20.32457,20.32457,0,0,0,164.95752,114.63428Z"/></g></g></g></svg>