<?xml version="1.0" encoding="utf-8"?>
<!-- Generator: Adobe Illustrator 19.1.0, SVG Export Plug-In . SVG Version: 6.00 Build 0)  -->
<!DOCTYPE svg PUBLIC "-//W3C//DTD SVG 1.1//EN" "http://www.w3.org/Graphics/SVG/1.1/DTD/svg11.dtd">
<svg version="1.1" id="ams_x5F_appicon_x5F_RGB.svg"
	 xmlns="http://www.w3.org/2000/svg" xmlns:xlink="http://www.w3.org/1999/xlink" x="0px" y="0px" viewBox="0 0 240 234"
	 style="enable-background:new 0 0 240 234;" xml:space="preserve">
<g>
	<path style="fill:#EAEAEA;" d="M0,0v234h240V0H0z"/>
</g>
<path style="fill:#EC1C24;" d="M72.1,117.6l26-25l24.9,25l-25.4,25.2L72.1,117.6z M144.7,116.2l-36.1-35.7l12.3-12.7l48.6,48.9
	l-49.1,48.9l-12.6-12.5L144.7,116.2z M132.3,56.9l11.4-11.3l72.3,72.1l-71.9,71.8l-12.6-12.8l60.8-60L132.3,56.9z M120.1,22l13.1,13
	l-83.9,82.1l83.5,83.6L119.5,214L24,117.6L120.1,22z"/>
</svg>
