<?xml version="1.0" encoding="utf-8"?>
<!-- Generator: Adobe Illustrator 24.1.0, SVG Export Plug-In . SVG Version: 6.00 Build 0)  -->
<svg version="1.1" id="Layer_1" xmlns="http://www.w3.org/2000/svg" xmlns:xlink="http://www.w3.org/1999/xlink" x="0px" y="0px"
	 viewBox="0 0 240 234" style="enable-background:new 0 0 240 234;" xml:space="preserve">
<style type="text/css">
	.st0{fill:#000B1D;}
	.st1{fill:#FFFFFF;}
</style>
<g id="Layer_2_1_">
	<g id="Surfaces">
		<g id="Utility_Surface">
			<g id="Outline_no_shadow">
				<path class="st0" d="M42.5,0h155C221,0,240,19,240,42.5v149c0,23.5-19,42.5-42.5,42.5h-155C19,234,0,215,0,191.5v-149
					C0,19,19,0,42.5,0z"/>
			</g>
		</g>
	</g>
	<g id="Outlined_Mnemonics_Logos">
		<g id="Pf">
			<path class="st1" d="M57,163.5V61.2c0-0.7,0.3-1.1,1-1.1c1.7,0,3.8,0,6.1-0.1c2.4-0.1,4.9-0.1,7.6-0.2c2.7-0.1,5.6-0.1,8.7-0.2
				c3.1-0.1,6.1-0.1,9.1-0.1c8.2,0,15,1,20.6,3.1c5,1.7,9.6,4.5,13.4,8.2c3.2,3.2,5.7,7.1,7.3,11.4c1.5,4.2,2.3,8.5,2.3,13
				c0,8.6-2,15.7-6,21.3c-4,5.6-9.6,9.8-16.1,12.2c-7.2,2.6-14.9,3.9-22.5,3.8c-2.4,0-4,0-5-0.1c-1-0.1-2.8,0.2-4.7,0.2v31.2
				c0.1,0.7-0.4,1.3-1.1,1.4c-0.1,0-0.2,0-0.4,0l-19.2-0.3C57.4,164.8,57,164.4,57,163.5z M78.8,79.7V113c1.4,0.1,3.1-0.1,4.3-0.1
				h5.3c3.9,0.1,7.8-0.5,11.5-1.6c3.2-0.9,6-2.8,8.2-5.3c2.1-2.5,3.1-5.9,3.1-10.3c0.1-3.1-0.7-6.2-2.3-8.9c-1.7-2.6-4.1-4.6-7-5.7
				c-3.7-1.5-7.7-2.1-11.8-2c-2.6,0-4.9,0-6.8,0.1C81.8,79.2,80.3,79.4,78.8,79.7z"/>
			<path class="st1" d="M154,103.9l-9.9,0c-0.8-0.1-1.1-0.5-1.1-1.1V86.3c-0.1-0.5,0.3-1,0.8-1.1c0.1,0,0.2,0,0.3,0l9.9,0v-2.3
				c0-3.4,0.2-6.7,0.8-10.1c0.5-2.8,1.4-5.5,2.6-8.1c2.1-4.3,5.2-8,9.2-10.8c4-2.8,9.2-4.2,15.8-4.2c1.6,0,3.1,0.1,4.7,0.2
				c1.3,0.1,2.5,0.4,3.7,0.9c0.7,0.2,1.1,0.9,1.1,1.6v15.9c0,0.8-0.4,1-1.3,0.8c-0.8-0.1-1.6-0.2-2.4-0.2h-2.4
				c-1.8,0-3.5,0.3-5.1,1.1c-1.5,0.8-2.7,2.2-3.2,3.8c-1,2.3-1.5,4.7-1.6,7.2v4.1h13.6c0.6,0,1,0.1,1.2,0.3c0.2,0.3,0.3,0.6,0.2,1
				v16.4c0,0.8-0.5,1.1-1.4,1.1h-13.6v59.5c0,0.3-0.1,0.7-0.2,1c-0.2,0.3-0.6,0.5-1.2,0.5h-19.1c-0.9,0-1.3-0.5-1.3-1.4V103.9z"/>
		</g>
	</g>
</g>
</svg>
