<?xml version="1.0" encoding="utf-8"?>
<!-- Generator: Adobe Illustrator 27.9.0, SVG Export Plug-In . SVG Version: 6.00 Build 0)  -->
<svg version="1.1" id="_x31__line" xmlns="http://www.w3.org/2000/svg" xmlns:xlink="http://www.w3.org/1999/xlink" x="0px" y="0px"
	 viewBox="0 0 256 256" style="enable-background:new 0 0 256 256;" xml:space="preserve">
<style type="text/css">
	.st0{fill:#001E36;}
	.st1{fill-rule:evenodd;clip-rule:evenodd;fill:#31A8FF;}
	.st2{opacity:0.6;fill:#31A8FF;}
</style>
<g>
	<path class="st0" d="M210.7,252.8H45.3c-25,0-45.3-20.3-45.3-45.3V48.5c0-25,20.3-45.3,45.3-45.3h165.3c25,0,45.3,20.3,45.3,45.3
		v158.9C256,232.5,235.7,252.8,210.7,252.8z"/>
	<g>
		<g id="Group_1428_2_" transform="translate(-118.757 -953.722)">
			<path id="Path_1953_2_" class="st1" d="M245.5,1094.5l15.7,28.9c12.3-4.1,22.1-13.4,26.9-25.5l1.3-3.4H245.5z M247.6,1064.7
				l-14.6-26.5c-12.2,4.6-21.9,14.1-26.7,26.3l0.4,0.3L247.6,1064.7z M233,1087.1l-14.9,25.9c7.8,7.1,18,11.1,28.5,11.3
				c2.4-0.1,4.9-0.3,7.3-0.7l0.3-0.4L233,1087.1z M261,1072.9l14.9-25.6c-8-7-18.2-10.9-28.8-10.9c-2.1,0-4.3,0.2-6.4,0.5l-0.3,0.5
				L261,1072.9z M234,1072.1h-29.9c-0.6,2.7-0.9,5.6-0.9,8.4c0,9.8,3.3,19.4,9.4,27.1l0.7,0.4L234,1072.1z M259.9,1087.1h30.3
				c0.5-2.5,0.7-5.1,0.7-7.7c0-9.7-3.4-19.2-9.6-26.7l-0.7-0.5L259.9,1087.1z"/>
		</g>
		<g>
			<path class="st2" d="M152.6,232.5c-2.5,0-5-0.6-7.2-1.9L27.8,165.1c-3.4-1.9-5.9-5-6.9-8.8c-1-3.7-0.5-7.6,1.5-11L91.1,29.8
				c2.7-4.5,7.6-7.3,12.9-7.3c2.5,0,5,0.6,7.2,1.8l117.6,65.5c3.4,1.9,5.9,5,6.9,8.8c1,3.7,0.5,7.6-1.5,11l-68.6,115.6
				C162.9,229.7,157.9,232.5,152.6,232.5z M104,33.2c-1.5,0-3,0.8-3.7,2L31.7,150.8c-0.5,0.8-0.6,1.8-0.4,2.7c0.3,1,0.9,1.7,1.7,2.2
				l117.6,65.5c0.6,0.3,1.3,0.5,2,0.5c1.5,0,2.9-0.8,3.7-2l68.6-115.6c0.5-0.8,0.6-1.8,0.4-2.7c-0.3-1-0.9-1.7-1.7-2.2L106,33.7
				C105.4,33.4,104.7,33.2,104,33.2z"/>
		</g>
	</g>
</g>
</svg>
