<?xml version="1.0" encoding="utf-8"?>
<!-- Generator: Adobe Illustrator 24.3.0, SVG Export Plug-In . SVG Version: 6.00 Build 0)  -->
<svg version="1.1" id="Layer_1" xmlns="http://www.w3.org/2000/svg" xmlns:xlink="http://www.w3.org/1999/xlink" x="0px" y="0px"
	 viewBox="0 0 240 234" style="enable-background:new 0 0 240 234;" xml:space="preserve">
<style type="text/css">
	.st0{fill:#001E36;}
	.st1{fill:#31A8FF;}
	.st2{opacity:0.6;}
</style>
<g id="Surfaces">
	<g id="Photo_Surface">
		<g id="Outline_no_shadow">
			<path class="st0" d="M42.5,0h155C221,0,240,19,240,42.5v149c0,23.5-19,42.5-42.5,42.5h-155C19,234,0,215,0,191.5v-149
				C0,19,19,0,42.5,0z"/>
		</g>
	</g>
</g>
<g id="Outlined_Mnemonics_Logos">
	<g id="PsX">
		<g>
			<g id="Outlined_Mnemonics_Logos-2">
				<g id="Ps">
					<g>
						<path class="st1" d="M73.2,151.9V79.1c0-0.5,0.2-0.8,0.7-0.8c1.2,0,2.3,0,4-0.1c1.7,0,3.5-0.1,5.4-0.1c1.9,0,4-0.1,6.2-0.1
							c2.2,0,4.3-0.1,6.4-0.1c5-0.1,9.9,0.6,14.6,2.2c3.6,1.2,6.8,3.2,9.5,5.8c2.3,2.3,4.1,5,5.2,8c1.1,2.9,1.6,6,1.6,9.2
							c0,6.1-1.4,11.1-4.2,15.1c-2.8,4-6.8,7-11.4,8.6c-5.1,1.7-10.5,2.6-16,2.4c-1.7,0-2.9,0-3.5-0.1c-0.7,0-1.7-0.1-3.1-0.1v22.7
							c0.1,0.5-0.3,1-0.8,1c-0.1,0-0.2,0-0.3,0H74C73.5,152.9,73.2,152.6,73.2,151.9z M88.6,92v23.8c1,0.1,1.9,0.1,2.7,0.1h3.8
							c2.8,0,5.5-0.4,8.2-1.3c2.3-0.7,4.3-2,5.8-3.8c1.5-1.7,2.2-4.2,2.2-7.3c0.1-2.2-0.5-4.4-1.7-6.3c-1.2-1.8-2.9-3.2-5-4
							c-2.7-1-5.5-1.5-8.3-1.4c-1.8,0-3.4,0-4.8,0.1C90.1,91.8,89.2,91.9,88.6,92L88.6,92z"/>
						<path class="st1" d="M170.9,111.4c-2.1-1.1-4.4-1.9-6.8-2.4c-2.6-0.6-5.3-0.9-7.9-0.9c-1.4,0-2.9,0.1-4.3,0.5
							c-0.9,0.2-1.7,0.7-2.2,1.4c-0.4,0.6-0.6,1.3-0.6,1.9c0,0.7,0.3,1.3,0.7,1.8c0.7,0.8,1.5,1.4,2.4,1.9c1.6,0.9,3.3,1.7,5,2.3
							c3.8,1.3,7.5,3,10.9,5.2c2.3,1.5,4.2,3.5,5.6,5.9c1.1,2.3,1.7,4.8,1.7,7.3c0.1,3.3-0.9,6.6-2.7,9.4c-2,2.8-4.7,5-7.9,6.3
							c-4.1,1.6-8.4,2.4-12.8,2.3c-3.2,0-6.5-0.3-9.6-0.9c-2.5-0.5-4.9-1.2-7.2-2.3c-0.5-0.3-0.8-0.8-0.8-1.4v-12.3
							c0-0.2,0.1-0.5,0.3-0.6c0.2-0.1,0.5-0.1,0.6,0.1c2.7,1.6,5.7,2.8,8.8,3.5c2.7,0.7,5.5,1,8.3,1.1c2,0.1,4-0.2,5.9-1
							c1.2-0.5,1.9-1.7,1.9-3c-0.1-1.2-0.7-2.2-1.7-2.9c-2.2-1.4-4.5-2.5-7-3.3c-3.6-1.2-7-3-10.1-5.1c-2.2-1.6-4.1-3.6-5.4-6
							c-1.1-2.2-1.7-4.7-1.7-7.2c0-3,0.8-6,2.4-8.6c1.8-2.8,4.4-5.1,7.4-6.5c3.9-1.8,8.2-2.7,12.5-2.5c2.9,0,5.9,0.2,8.8,0.6
							c2.1,0.3,4.2,0.8,6.1,1.7c0.3,0.1,0.6,0.3,0.7,0.6c0.1,0.3,0.1,0.6,0.1,0.9v11.5c0,0.3-0.1,0.5-0.3,0.7
							C171.6,111.6,171.2,111.6,170.9,111.4z"/>
					</g>
				</g>
			</g>
			<g class="st2">
				<path class="st1" d="M120,213.8c-3.9,0-7.6-1.5-10.3-4.3l-82.2-82.2c-5.7-5.7-5.7-14.9,0-20.6c0,0,0,0,0,0l82.2-82.2
					c5.7-5.7,14.9-5.7,20.6,0c0,0,0,0,0,0l82.2,82.2c5.7,5.7,5.7,14.9,0,20.6c0,0,0,0,0,0l-82.2,82.2
					C127.6,212.2,123.9,213.8,120,213.8z M112.5,206.7c4.1,4.1,10.8,4.1,14.9,0l82.2-82.2c4.1-4.1,4.1-10.8,0-14.9l-82.2-82.2
					c-4.1-4.1-10.8-4.1-14.9,0l-82.2,82.2c-4.1,4.1-4.1,10.8,0,14.9L112.5,206.7z"/>
			</g>
		</g>
	</g>
</g>
</svg>
