<?xml version="1.0" encoding="utf-8"?>
<!-- Generator: Adobe Illustrator 27.9.0, SVG Export Plug-In . SVG Version: 6.00 Build 0)  -->
<svg version="1.1" id="_x31__line" xmlns="http://www.w3.org/2000/svg" xmlns:xlink="http://www.w3.org/1999/xlink" x="0px" y="0px"
	 viewBox="0 0 256 256" style="enable-background:new 0 0 256 256;" xml:space="preserve">
<style type="text/css">
	.st0{fill:#001E36;}
	.st1{fill-rule:evenodd;clip-rule:evenodd;fill:#31A8FF;}
	.st2{opacity:0.6;fill:#31A8FF;}
	.st3{fill:#00005B;}
	.st4{fill-rule:evenodd;clip-rule:evenodd;fill:#9999FF;}
	.st5{opacity:0.6;fill:#9999FF;}
</style>
<g>
	<g>
		<path class="st0" d="M99.4,186.9h-78C9.6,186.9,0,177.3,0,165.5v-75c0-11.8,9.6-21.4,21.4-21.4h78c11.8,0,21.4,9.6,21.4,21.4v75
			C120.8,177.3,111.2,186.9,99.4,186.9z"/>
		<g>
			<g id="Group_1428_1_" transform="translate(-118.757 -953.722)">
				<path id="Path_1953_1_" class="st1" d="M178.6,1087.8l7.4,13.7c5.8-1.9,10.4-6.3,12.7-12l0.6-1.6H178.6z M179.6,1073.7
					l-6.9-12.5c-5.8,2.2-10.3,6.7-12.6,12.4l0.2,0.1L179.6,1073.7z M172.7,1084.3l-7,12.2c3.7,3.4,8.5,5.3,13.5,5.3
					c1.2,0,2.3-0.1,3.4-0.3l0.1-0.2L172.7,1084.3z M185.9,1077.6l7-12.1c-3.8-3.3-8.6-5.1-13.6-5.1c-1,0-2,0.1-3,0.2l-0.1,0.3
					L185.9,1077.6z M173.1,1077.2H159c-0.3,1.3-0.4,2.6-0.4,3.9c0,4.6,1.6,9.1,4.4,12.8l0.3,0.2L173.1,1077.2z M185.3,1084.2h14.3
					c0.2-1.2,0.3-2.4,0.3-3.6c0-4.6-1.6-9-4.5-12.6l-0.3-0.3L185.3,1084.2z"/>
			</g>
			<g>
				<path class="st2" d="M72,177.3c-1.2,0-2.4-0.3-3.4-0.9l-55.5-30.9c-1.6-0.9-2.8-2.4-3.2-4.1c-0.5-1.8-0.2-3.6,0.7-5.2L43,81.7
					c1.3-2.1,3.6-3.4,6.1-3.4c1.2,0,2.4,0.3,3.4,0.9L108,110c1.6,0.9,2.8,2.4,3.2,4.1c0.5,1.8,0.2,3.6-0.7,5.2l-32.4,54.5
					C76.9,176,74.5,177.3,72,177.3z M49.1,83.3c-0.7,0-1.4,0.4-1.8,1L15,138.8c-0.2,0.4-0.3,0.8-0.2,1.3c0.1,0.5,0.4,0.8,0.8,1
					L71.1,172c0.3,0.2,0.6,0.2,0.9,0.2c0.7,0,1.4-0.4,1.7-0.9l32.4-54.5c0.2-0.4,0.3-0.8,0.2-1.3c-0.1-0.5-0.4-0.8-0.8-1L50,83.5
					C49.7,83.4,49.4,83.3,49.1,83.3z"/>
			</g>
		</g>
	</g>
	<g>
		<path class="st3" d="M234.6,186.9h-78c-11.8,0-21.4-9.6-21.4-21.4v-75c0-11.8,9.6-21.4,21.4-21.4h78c11.8,0,21.4,9.6,21.4,21.4v75
			C256,177.3,246.4,186.9,234.6,186.9z"/>
		<g>
			<g id="Group_1427_4_" transform="translate(-218.073 -954.377)">
				<path id="Path_1956_4_" class="st4" d="M413.8,1060.7c-11.6,0-21.1,9.4-21.1,21.1s9.4,21.1,21.1,21.1s21.1-9.4,21.1-21.1
					C434.8,1070.1,425.4,1060.7,413.8,1060.7z M425.4,1083.2l-18.6,10c-1.2,0.7-2.2,0.1-2.3-1.3v-20c0-1.4,1-2,2.3-1.3l18.6,10
					C426.7,1081.3,426.7,1082.5,425.4,1083.2z"/>
			</g>
			<g>
				<path class="st5" d="M207.2,177.4c-1.2,0-2.4-0.3-3.4-0.9l-55.6-31c-1.6-0.9-2.8-2.4-3.2-4.2c-0.5-1.8-0.2-3.6,0.7-5.2
					l32.4-54.6c1.3-2.1,3.6-3.4,6.1-3.4c1.2,0,2.4,0.3,3.4,0.9l55.6,31c1.6,0.9,2.8,2.4,3.2,4.2c0.5,1.8,0.2,3.6-0.7,5.2l-32.4,54.6
					C212,176.1,209.7,177.4,207.2,177.4z M184.2,83.2c-0.7,0-1.4,0.4-1.8,1L150,138.8c-0.2,0.4-0.3,0.8-0.2,1.3
					c0.1,0.5,0.4,0.8,0.8,1l55.6,31c0.3,0.2,0.6,0.2,0.9,0.2c0.7,0,1.4-0.4,1.7-0.9l32.4-54.6c0.2-0.4,0.3-0.8,0.2-1.3
					c-0.1-0.5-0.4-0.8-0.8-1l-55.6-31C184.9,83.3,184.5,83.2,184.2,83.2z"/>
			</g>
		</g>
	</g>
</g>
</svg>
