<?xml version="1.0" encoding="utf-8"?>
<!-- Generator: Adobe Illustrator 27.9.0, SVG Export Plug-In . SVG Version: 6.00 Build 0)  -->
<svg version="1.1" id="Layer_2_00000070834992582250803190000016058053146898037924_"
	 xmlns="http://www.w3.org/2000/svg" xmlns:xlink="http://www.w3.org/1999/xlink" x="0px" y="0px" viewBox="0 0 256 256"
	 style="enable-background:new 0 0 256 256;" xml:space="preserve">
<style type="text/css">
	.st0{fill:#00005B;}
	.st1{fill-rule:evenodd;clip-rule:evenodd;fill:#9999FF;}
	.st2{opacity:0.6;fill:#9999FF;enable-background:new    ;}
</style>
<g id="_1_line">
	<g>
		<path class="st0" d="M45.3,3.2h165.3c25,0,45.3,20.3,45.3,45.3v158.9c0,25-20.3,45.3-45.3,45.3H45.3c-25,0-45.3-20.3-45.3-45.3
			V48.5C0,23.5,20.3,3.2,45.3,3.2z"/>
		<g>
			<g id="Group_1427">
				<path id="Path_1956" class="st1" d="M128.2,82.1c-24.6,0-44.6,20-44.6,44.6s20,44.6,44.6,44.6s44.6-20,44.6-44.6
					C172.8,102.1,152.9,82.1,128.2,82.1z M152.9,129.7l-39.3,21.2c-2.6,1.5-4.7,0.3-4.8-2.7v-42.4c0-3,2.1-4.2,4.8-2.7l39.3,21.3
					C155.7,125.8,155.7,128.3,152.9,129.7z"/>
			</g>
			<path class="st2" d="M152.5,232.6c-2.5,0-5-0.6-7.2-1.8L27.6,165.1c-3.4-1.9-5.9-5-6.9-8.8c-1-3.7-0.5-7.6,1.5-11L91,29.6
				c2.7-4.5,7.6-7.3,12.9-7.3c2.5,0,5,0.6,7.2,1.8l117.7,65.7c3.4,1.9,5.9,5,6.9,8.8c1,3.7,0.5,7.7-1.5,11l-68.7,115.7
				C162.8,229.8,157.9,232.6,152.5,232.6L152.5,232.6z M103.9,33.1c-1.5,0-3,0.8-3.7,2L31.5,150.8c-0.5,0.8-0.6,1.8-0.4,2.7
				c0.3,1,0.9,1.7,1.8,2.2l117.7,65.6c0.6,0.3,1.3,0.5,2,0.5c1.5,0,3-0.8,3.7-2L225,104.1c0.5-0.8,0.6-1.8,0.4-2.7
				c-0.3-1-0.9-1.7-1.8-2.2L105.9,33.6C105.3,33.3,104.6,33.1,103.9,33.1z"/>
		</g>
	</g>
</g>
</svg>
