<?xml version="1.0" encoding="utf-8"?>
<!-- Generator: Adobe Illustrator 21.0.0, SVG Export Plug-In . SVG Version: 6.00 Build 0)  -->
<svg version="1.1" id="pn_x5F_11_x5F_appicon_x5F_RGB"
	 xmlns="http://www.w3.org/2000/svg" xmlns:xlink="http://www.w3.org/1999/xlink" x="0px" y="0px" viewBox="0 0 240 234"
	 style="enable-background:new 0 0 240 234;" xml:space="preserve">
<style type="text/css">
	.st0{fill:#1A2600;}
	.st1{fill:#8DD933;}
	.st2{fill:#EAFFC4;}
</style>
<g>
	<g>
		<rect x="10" y="10" class="st0" width="220" height="214"/>
	</g>
	<g>
		<path class="st1" d="M0,0v234h240V0H0z M10,10h220v214H10V10z"/>
	</g>
	<g>
		<path class="st2" d="M166.5,81H147v4h19.5c5.8,0,10.5,4.7,10.5,10.5v47.1c0,5.8-4.7,10.5-10.5,10.5H137h-4h-29.5
			c-5.8,0-10.5-4.7-10.5-10.5V131h-4v11.5c0,8,6.5,14.5,14.5,14.5H133v16h-22v4h48v-4h-22v-16h29.5c8,0,14.5-6.5,14.5-14.5V95.5
			C181,87.5,174.5,81,166.5,81z"/>
		<path class="st1" d="M93,75l38.9,18.8L93,112.7V75z M135.7,133c7.8,0,13.3-6.4,13.3-14.2V71.2c0-7.8-6.1-14.2-14-14.2H75.2
			C67.4,57,61,63.3,61,71.2v47.6c0,7.8,6.4,14.3,14.2,14.3H135.7z"/>
	</g>
</g>
</svg>
