<?xml version="1.0" encoding="utf-8"?>
<!-- Generator: Adobe Illustrator 21.0.0, SVG Export Plug-In . SVG Version: 6.00 Build 0)  -->
<svg version="1.1" id="rhserver_x5F_12_x5F_app_x5F_RGB.svg"
	 xmlns="http://www.w3.org/2000/svg" xmlns:xlink="http://www.w3.org/1999/xlink" x="0px" y="0px" viewBox="0 0 240 234"
	 style="enable-background:new 0 0 240 234;" xml:space="preserve">
<g>
	<rect x="10" y="10" style="fill-rule:evenodd;clip-rule:evenodd;fill:#002623;" width="220" height="214"/>
</g>
<path style="fill-rule:evenodd;clip-rule:evenodd;fill:#B4F8F2;" d="M0,0v234h240V0H0z M10,10h220v214H10V10z"/>
<path style="fill-rule:evenodd;clip-rule:evenodd;fill:#B4F8F2;" d="M65,162.8c0,0.8-0.3,0.7-1.1,0.7H49.3c-1,0-1.3-0.3-1.3-1.3
	v-105c0-0.8,0.3-1.5,1-1.5c7.9-0.3,15-0.5,26.9-0.5c23,0,36.9,11,36.9,30.9c0,16.4-11,25.6-20.1,29c4.7,8.1,20.5,37.2,25.6,46.9
	c0.5,0.8,0.5,1.5-0.6,1.5h-16.8c-1.1,0-1.6,0.2-1.9-0.3c-3.7-6.4-15.3-29.2-22.7-42.7H65V162.8z M74.8,104.5
	c11.8,0,20.2-4.7,20.2-16.7c0-11.8-7.6-17-19.5-17c-4.2,0-8.2,0.2-10.5,0.3v33.4H74.8z M150,162.4c0,0.8-0.3,1.1-1,1.1h-15.9
	c-0.8,0-1.1-0.5-1.1-1.1V56.5c0-0.7,0.2-1,1.1-1H149c0.7,0,1,0.3,1,1v32.2c5-3.9,11.2-6.3,18.9-6.3c10.5,0,23.1,5.3,23.1,28.8v51
	c0,1-0.3,1.3-1.1,1.3h-15.7c-0.8,0-1.1-0.5-1.1-1.3v-49.3c0-9.7-3.8-15-11.5-15c-5,0-9,1.6-12.5,4.8V162.4z"/>
</svg>
