<?xml version="1.0" encoding="utf-8"?>
<!-- Generator: Adobe Illustrator 26.3.1, SVG Export Plug-In . SVG Version: 6.00 Build 0)  -->
<svg version="1.1" id="Layer_1" xmlns="http://www.w3.org/2000/svg" xmlns:xlink="http://www.w3.org/1999/xlink" x="0px" y="0px"
	 viewBox="0 0 240 234" style="enable-background:new 0 0 240 234;" xml:space="preserve">
<style type="text/css">
	.st0{fill:#1E3101;}
	.st1{fill:#99E83F;}
</style>
<g>
	<path class="st0" d="M42.5,0h155C221,0,240,19,240,42.5v149c0,23.5-19,42.5-42.5,42.5h-155C19,234,0,215,0,191.5v-149
		C0,19,19,0,42.5,0z"/>
	<g>
		<g>
			<path class="st1" d="M30,60.5c0.1-0.6,0.5-1,1.2-1h28.1c0.9,0,1.5,0.4,1.7,1.1c0.7,2.8,1.6,6.1,2.6,10.1c1,3.9,2.1,8.2,3.3,13
				c1.2,4.7,2.4,9.6,3.6,14.5c1.2,4.9,2.4,9.7,3.6,14.4c1.2,4.7,2.2,9,3,12.9c0.8,3.9,1.5,7.2,2,9.7h0.2c0.4-2.3,1.1-5.3,2.1-9
				c1-3.8,2.2-8,3.5-12.6c1.3-4.7,2.7-9.5,4.1-14.4c1.4-4.9,2.7-9.8,4.1-14.7c1.3-4.8,2.6-9.3,3.7-13.4c1.2-4.1,2.1-7.6,2.8-10.4
				c0.2-0.7,0.7-1.1,1.4-1.1h27.4c0.8,0,1.3,0.4,1.4,1.1l3.7,102.9c0.1,0.4,0,0.8-0.2,1c-0.3,0.3-0.6,0.4-1,0.4h-19.9
				c-0.3,0-0.6-0.1-0.8-0.2c-0.2-0.2-0.3-0.5-0.3-0.9c0-5.5,0-11.2-0.1-17.2c-0.1-6-0.1-12-0.2-18.1c-0.1-6.1-0.1-11.9,0-17.5
				c0.1-5.6,0.2-10.7,0.2-15.5c0-4.7,0-8.8,0.1-12.3c0.1-3.5,0.1-6.1,0.1-7.8H111c-0.6,2.7-1.4,6.2-2.4,10.5
				c-1,4.3-2.2,9.2-3.6,14.7c-1.4,5.4-2.9,11-4.4,16.8c-1.6,5.8-3.1,11.5-4.6,17.2c-1.5,5.7-2.9,11-4.3,15.9
				c-1.4,4.9-2.5,9.3-3.4,13c-0.3,0.9-0.9,1.3-1.7,1.3H69.3c-1,0-1.6-0.4-1.8-1.3c-0.9-3.8-2-8.1-3.1-13c-1.2-4.9-2.4-10.1-3.6-15.5
				c-1.2-5.4-2.5-10.9-3.9-16.5c-1.4-5.6-2.7-11.1-3.9-16.3c-1.2-5.3-2.3-10.2-3.3-14.8c-1-4.6-1.9-8.7-2.7-12.2h-0.3
				c0,3.5,0,7.8,0,12.7c0,4.9-0.1,10.4-0.2,16.3s-0.3,12.2-0.5,18.7c-0.2,6.5-0.3,13.2-0.5,20.1c-0.2,6.9-0.5,13.8-0.8,20.5
				c0,0.9-0.4,1.3-1.2,1.3H25.7c-0.4,0-0.7-0.1-1-0.2c-0.3-0.2-0.3-0.6-0.2-1.2L30,60.5z"/>
		</g>
		<g>
			<path class="st1" d="M181.1,166.6c-7.9,0-15.1-1.5-21.5-4.5c-6.4-3-11.4-7.5-15.1-13.6c-3.7-6.1-5.5-13.7-5.5-22.8
				c0-7.6,1.8-14.7,5.5-21.1c3.6-6.4,9-11.6,15.9-15.5c7-3.9,15.4-5.8,25.3-5.8c0.5,0,1.2,0,2.1,0.1c0.9,0.1,1.9,0.1,3.1,0.2V52
				c0-0.7,0.3-1.1,1-1.1h20.3c0.6,0,1,0.3,1,1V147c0,1.8,0.1,3.8,0.2,6c0.2,2.1,0.3,4.1,0.4,5.8c0,0.8-0.3,1.3-1,1.6
				c-5.5,2.3-10.9,3.9-16.3,4.8C191.2,166.1,186,166.6,181.1,166.6z M190.9,146.6v-44c-0.8-0.2-1.6-0.4-2.7-0.5
				c-1-0.1-2.1-0.2-3.3-0.2c-4.1,0-7.8,0.9-11.3,2.6c-3.4,1.7-6.3,4.2-8.5,7.4c-2.2,3.2-3.3,7.5-3.3,12.7c0,4,0.6,7.4,1.7,10.3
				c1.1,2.9,2.6,5.3,4.5,7.1c1.9,1.8,4.1,3.2,6.8,4c2.6,0.9,5.4,1.3,8.3,1.3c1.5,0,2.9-0.1,4.2-0.2
				C188.7,147.2,189.8,147,190.9,146.6z"/>
		</g>
	</g>
</g>
</svg>
