<?xml version="1.0" encoding="utf-8"?>
<!-- Generator: Adobe Illustrator 18.1.1, SVG Export Plug-In . SVG Version: 6.00 Build 0)  -->
<!DOCTYPE svg PUBLIC "-//W3C//DTD SVG 1.1//EN" "http://www.w3.org/Graphics/SVG/1.1/DTD/svg11.dtd">
<svg version="1.1" id="tcs6_x5F_app_x5F_RGB" xmlns="http://www.w3.org/2000/svg" xmlns:xlink="http://www.w3.org/1999/xlink"
	 x="0px" y="0px" viewBox="0 0 240.0004 234.0004" enable-background="new 0 0 240.0004 234.0004" xml:space="preserve">
<g>
	<g>
		<radialGradient id="SVGID_1_" cx="97.5666" cy="81.4212" r="143.645" gradientUnits="userSpaceOnUse">
			<stop  offset="0" style="stop-color:#111111;stop-opacity:0.85"/>
			<stop  offset="0.7669" style="stop-color:#0A0A0A"/>
		</radialGradient>
		<rect x="9.8123" y="9.9687" fill-rule="evenodd" clip-rule="evenodd" fill="url(#SVGID_1_)" width="220.11" height="214.499"/>
	</g>
	<path fill-rule="evenodd" clip-rule="evenodd" fill="#DCDCDC" d="M0,0v234.0004l239.7993-0.0327L240.0004,0L0,0z M9.8123,9.9688
		h220.11l-0.123,214.499h-220L9.8123,9.9688z"/>
	<path fill-rule="evenodd" clip-rule="evenodd" fill="#DCDCDC" d="M130.7612,160.0341c-0.5908-0.4512-0.8896-1.041-0.8896-1.9395
		v-14.3007c0-0.4493,0.5996-0.9004,1.1894-0.4493c6.71,4.6192,14.5508,6.709,22,6.709c10.8809,0,15.3506-5.6699,15.3506-12.0703
		c0-5.6699-2.8301-10.2793-13.2607-16.3887l-5.3692-2.8261c-15.3408-8.6504-19.8105-17.4395-19.8105-28.6094
		c0-15.2007,10.5801-27.4209,30.541-27.4209c8.7891,0,14.7392,1.3403,18.4687,3.4302c0.7403,0.2998,0.8907,0.7402,0.8907,1.6401
		v13.4092c0,0.5908-0.5996,1.041-1.1895,0.5908c-4.6211-2.9795-10.8711-4.4702-17.8711-4.4702
		c-11.4687,0-15.1992,6.5601-15.1992,11.77c0,5.6699,2.8301,9.8399,13.1094,15.5l4.7705,2.5293
		c16.9892,9.3906,21.3096,18.4766,21.3096,29.6465c0,16.5391-12.0704,28.0195-31.7403,28.0195
		C144.272,164.8036,136.2817,163.163,130.7612,160.0341z M79.8711,78.9579H54.8413c-0.75,0-1.0103-0.4297-0.8604-1.3193
		l1.7901-12.6401c0.1401-0.7403,0.4399-1.0401,1.1899-1.0401h62.5806c0.8896,0,1.1894,0.2998,1.3398,1.19l1.1895,12.6201
		c0.1504,0.8906-0.2998,1.1894-1.0391,1.1894H95.8716v83.9356c0,0.7402-0.3008,1.0605-1.1905,1.0605H81.061
		c-0.8901,0-1.1899-0.3008-1.1899-1.1894V78.9579z"/>
</g>
</svg>
